<?xml version="1.0" encoding="UTF-8" standalone="no"?>
<svg
   xmlns:dc="http://purl.org/dc/elements/1.1/"
   xmlns:cc="http://creativecommons.org/ns#"
   xmlns:rdf="http://www.w3.org/1999/02/22-rdf-syntax-ns#"
   xmlns:svg="http://www.w3.org/2000/svg"
   xmlns="http://www.w3.org/2000/svg"
   xmlns:sodipodi="http://sodipodi.sourceforge.net/DTD/sodipodi-0.dtd"
   xmlns:inkscape="http://www.inkscape.org/namespaces/inkscape"
   width="210mm"
   height="297mm"
   viewBox="0 0 210 297"
   version="1.1"
   id="svg8"
   inkscape:version="1.0.1 (0767f8302a, 2020-10-17)"
   sodipodi:docname="icon_V.svg">
  <defs
     id="defs2" />
  <sodipodi:namedview
     id="base"
     pagecolor="#ffffff"
     bordercolor="#666666"
     borderopacity="1.0"
     inkscape:pageopacity="0.0"
     inkscape:pageshadow="2"
     inkscape:zoom="0.17727627"
     inkscape:cx="1844.7673"
     inkscape:cy="1429.4925"
     inkscape:document-units="mm"
     inkscape:current-layer="layer1"
     inkscape:document-rotation="0"
     showgrid="false"
     inkscape:window-width="1859"
     inkscape:window-height="1025"
     inkscape:window-x="61"
     inkscape:window-y="27"
     inkscape:window-maximized="1" />
  <metadata
     id="metadata5">
    <rdf:RDF>
      <cc:Work
         rdf:about="">
        <dc:format>image/svg+xml</dc:format>
        <dc:type
           rdf:resource="http://purl.org/dc/dcmitype/StillImage" />
        <dc:title></dc:title>
      </cc:Work>
    </rdf:RDF>
  </metadata>
  <g
     inkscape:label="Layer 1"
     inkscape:groupmode="layer"
     id="layer1">
    <circle
       id="path847"
       style="fill:#000000;stroke:#020202;stroke-width:0.264583"
       cx="-253.74597"
       cy="252.95854"
       r="0.10006353"
       inkscape:export-xdpi="96"
       inkscape:export-ydpi="96" />
    <path
       style="fill:#000000;stroke:#020202;stroke-width:0.264999;stroke-linecap:square;stroke-linejoin:round;paint-order:fill markers stroke"
       id="path865"
       d="m -340.4014,305.87346 c 0.91585,-2.14572 1.93948,-4.25305 3.08805,-6.28415 0.62778,-1.01388 1.4035,-1.89778 2.28405,-2.69274 1.65928,-1.24439 3.35069,-2.45396 4.96788,-3.7673 3.22943,-2.08314 9.63994,-6.40265 -5.08598,2.80977 -0.49721,0.31104 1.06453,-0.49522 1.6133,-0.70218 1.30119,-0.49069 1.92952,-0.59663 3.26391,-0.91376 3.00875,-0.61045 6.07773,-0.7148 9.13284,-0.5289 4.13948,0.3552 7.76702,2.36513 11.16496,4.60991 3.09934,2.22451 6.0009,4.73165 8.3487,7.74703 2.55776,3.42998 3.8691,7.51244 5.16344,11.53392 1.04312,3.22096 1.35568,6.59149 1.50791,9.95347 0.18059,2.04478 -0.0963,4.04413 -0.55004,6.0312 -0.57977,1.85151 -1.15823,3.69954 -1.5756,5.59655 -0.73029,3.1092 -1.26232,6.26049 -1.82332,9.40612 -0.64064,2.9685 -1.13868,5.96522 -1.46062,8.98462 -0.14392,1.35025 -0.16659,2.70878 -0.18458,4.06527 -0.003,0.74247 0.006,1.48489 0.004,2.22739 -0.008,0.77068 0.0863,1.54559 0.22466,2.30339 0.16606,0.92598 0.26494,1.85843 0.42488,2.78519 0.0683,0.95974 0.40249,1.85417 0.68442,2.76439 0.42986,1.41274 0.78679,2.84146 1.26967,4.23852 0.52616,1.46108 1.16303,2.87671 1.96336,4.20756 0.52773,0.84952 1.18822,1.60044 1.87404,2.32354 0.82533,0.81635 1.64462,1.64058 2.49838,2.42732 1.19027,1.21049 2.48661,2.10394 4.10951,2.59802 1.95022,0.4277 3.95783,0.45194 5.94547,0.49099 1.16676,0.0206 2.33369,0.0204 3.50057,0.0167 1.09809,0.0979 2.19357,0.19595 3.29632,0.22037 1.70032,-0.0843 3.37873,-0.41542 5.0401,-0.77034 3.95093,-0.9522 7.4816,-3.11705 11.0018,-5.07285 7.27135,-4.07204 14.50364,-8.21307 21.58752,-12.60274 4.97154,-2.90626 -4.92639,2.84022 -7.38052,4.27593 -1.35712,0.79394 1.49205,-0.74729 2.08157,-0.95208 4.28673,-0.90945 6.13433,-3.01172 11.12269,-6.17103 0.31725,-0.20093 0.43639,-0.61132 0.65941,-0.91345 0.30214,-0.40931 0.61067,-0.81388 0.916,-1.22084 2.05678,-2.72243 3.7851,-5.67129 5.86526,-8.37483 1.88642,-2.667 3.47893,-5.52654 5.11185,-8.35178 1.47429,-2.69214 2.72153,-5.5027 4.05528,-8.26638 1.08898,-2.39781 1.98673,-4.87249 2.81229,-7.3709 0.63432,-2.35563 1.30858,-4.69939 1.96613,-7.04876 0.52684,-2.27216 1.34749,-4.45651 1.95419,-6.70584 0.69713,-3.05432 0.74722,-6.20151 0.81306,-9.31878 0.0353,-3.91716 0.028,-7.83445 0.0325,-11.75173 0.0197,-4.61095 -0.069,-9.22132 -0.0955,-13.83213 0.13578,-6.10275 -0.12853,-12.1898 -0.45839,-18.28095 -0.29614,-5.02671 -0.96944,-10.02456 -2.07874,-14.93515 -1.03037,-4.16577 -2.19601,-8.29882 -3.46502,-12.39791 -1.3556,-4.29196 -3.16218,-8.34872 -5.55012,-12.1609 -2.44726,-3.884 -5.56347,-7.2381 -8.75587,-10.50765 -3.39928,-3.36859 -7.56481,-5.7321 -11.7642,-7.94184 -3.05595,-1.5911 -6.33584,-2.56061 -9.73197,-3.04224 -2.80658,-0.16392 -5.71786,-0.79634 -8.528,-0.31037 -0.97848,0.16922 -1.93057,0.46599 -2.89586,0.69898 -3.98796,1.19853 -7.84691,2.82927 -11.44605,4.92821 -11.69871,6.82243 -8.07846,4.1956 -13.60757,8.4027 -3.29308,2.72374 -5.96521,5.39459 -7.77499,9.29498 -1.25606,3.25117 -1.24777,6.72917 -1.02757,10.15279 0.2496,3.94615 1.55014,7.58511 3.36398,11.05455 1.39444,2.25144 3.15465,4.35169 5.44576,5.74511 1.69801,1.0327 2.63237,1.2434 4.50898,1.89658 6.4578,1.68229 13.11392,1.31407 19.65763,0.46342 6.85128,-1.00241 13.13675,-3.8531 19.27948,-6.89802 8.34442,-4.20283 16.34713,-9.03278 24.04073,-14.32379 3.34814,-2.34376 6.71764,-4.63806 10.25549,-6.68505 -2.823,1.63892 -5.65743,3.25831 -8.469,4.91676 -0.29305,0.17287 0.6072,-0.30718 0.91171,-0.45894 0.3225,-0.16073 0.65774,-0.29751 0.96931,-0.47851 8.14681,-4.73286 8.52395,-4.56315 13.48126,-8.55979 4.48471,-3.41673 8.53661,-7.34537 12.77524,-11.05208 5.8602,-5.19237 11.94242,-10.11113 18.08986,-14.95536 3.86661,-3.00039 7.63284,-6.13054 11.55604,-9.05752 0.36717,-0.2491 0.72753,-0.50855 1.10151,-0.74731 0.29897,-0.19086 0.6109,-0.3606 0.91636,-0.5409 -2.94513,1.71276 -5.89543,3.41667 -8.83539,5.1383 -0.18014,0.10549 0.36755,-0.19836 0.55535,-0.28954 0.37871,-0.18388 0.45949,-0.20252 0.8338,-0.33657 0.42297,-0.11461 0.21614,-0.0682 0.61974,-0.14262 0,0 9.07937,-6.69996 9.07937,-6.69996 v 0 c -0.47875,-0.009 -0.23138,-0.0116 -0.74206,0.011 -0.54002,0.0735 -1.14354,0.16167 -1.62644,0.43423 -4.16522,2.35092 -8.38809,4.41325 -12.17846,7.2686 -3.77312,2.93238 -7.4564,5.97836 -11.20697,8.93935 -6.14632,4.87361 -12.20567,9.85066 -18.107,15.02029 -4.28933,3.75939 -8.46705,7.65655 -13.02586,11.09531 -0.551,0.42856 -1.09641,0.86443 -1.65301,1.2857 -0.43187,0.32685 -1.78928,1.21457 -1.31208,0.9584 2.82842,-1.51834 5.58747,-3.16252 8.3771,-4.75101 0.30882,-0.17585 -0.61536,0.35685 -0.93458,0.51304 -0.31808,0.15564 -0.66641,0.24804 -0.97519,0.4214 -3.53901,1.9869 -7.04185,4.03755 -10.56278,6.05633 -3.43776,2.06731 -6.70199,4.3968 -10.00702,6.66723 -2.44772,1.66343 -2.11787,1.45635 -4.64013,3.09972 -0.8102,0.52789 -3.29278,2.02395 -2.43664,1.57438 14.4721,-7.59953 4.5111,-2.8506 1.57644,-1.06342 -6.09417,3.09208 -12.29054,6.08046 -19.10234,7.20869 -6.39119,0.91889 -12.88496,1.41182 -19.22842,-0.16042 -1.69994,-0.54112 -2.72478,-0.76155 -4.26773,-1.65167 -2.17469,-1.25456 -3.84589,-3.23109 -5.15176,-5.33335 -1.74986,-3.33409 -2.97563,-6.83361 -3.14712,-10.63615 -0.14797,-3.27965 -0.0482,-6.6108 1.31484,-9.65974 1.86923,-3.51369 4.68995,-6.32236 7.82098,-8.75129 4.4759,-3.22424 2.31571,-1.5463 -4.93485,2.42127 -0.86329,0.4724 1.68401,-1.02067 2.55249,-1.48346 1.70488,-0.90847 3.97164,-1.93199 5.77042,-2.62797 0.96849,-0.37473 1.95973,-0.68774 2.93959,-1.03161 0.88985,-0.24599 1.76682,-0.54457 2.66956,-0.73797 2.72573,-0.58396 5.56686,0.008 8.3062,0.15019 3.33342,0.43816 6.61608,1.10977 9.64682,2.64649 4.13994,2.09616 8.20969,4.38852 11.54249,7.67522 3.18265,3.17123 6.25519,6.46221 8.66466,10.27925 2.33204,3.73887 4.06639,7.72502 5.36685,11.93847 1.25616,4.07034 2.449,8.16171 3.46424,12.29957 1.07959,4.84927 1.78264,9.77332 2.08143,14.73494 0.39114,6.06697 0.58429,12.13135 0.45232,18.21232 -0.0238,4.63979 -0.10896,9.27934 -0.0732,13.91926 0.014,3.91104 0.0336,7.82327 -0.0663,11.73337 -0.10379,3.05519 -0.20645,6.14338 -1.01267,9.11127 -0.65937,2.23409 -1.44137,4.43216 -1.95767,6.70732 -0.66409,2.33031 -1.30075,4.66772 -1.97866,6.99336 -0.84181,2.4485 -1.75178,4.87669 -2.83154,7.23156 -1.30862,2.75641 -2.59346,5.5294 -4.09157,8.18973 -1.61643,2.81022 -3.21739,5.6425 -5.1697,8.23846 -1.97407,2.76794 -3.75157,5.67545 -5.87223,8.33829 -0.33487,0.40032 -0.65095,0.81714 -1.00462,1.20095 -0.25328,0.27487 -1.14446,0.9452 -0.8133,0.77189 17.67102,-9.24716 11.79014,-5.87271 8.26158,-4.85211 -0.8258,0.11374 -1.63411,0.36277 -2.36403,0.77729 -9.00621,5.11482 -7.23403,4.04024 -11.59733,6.72312 -0.90122,0.56697 -2.2327,1.40896 -3.11584,1.94445 -0.64698,0.39227 -2.60946,1.53275 -1.95108,1.15993 14.6894,-8.31813 5.37204,-3.13423 2.22856,-1.32017 -3.3969,1.91419 -6.80668,4.01122 -10.56144,5.13475 -1.60788,0.37385 -3.22777,0.68556 -4.86421,0.90641 -1.07244,0.0887 -2.14655,-0.0124 -3.21244,-0.14772 -1.19006,-0.15761 -2.39916,0.0145 -3.59642,-0.0287 -1.93147,0 -3.87284,0 -5.78896,-0.2729 -1.61108,-0.32091 -2.63008,-0.96009 -3.78111,-2.1446 -0.83003,-0.7782 -1.62295,-1.59285 -2.42018,-2.4043 -0.6439,-0.65368 -1.27725,-1.32339 -1.78214,-2.09388 -0.78315,-1.24516 -1.3827,-2.58633 -1.86991,-3.97386 -0.46877,-1.39523 -0.78845,-2.82517 -1.21104,-4.23344 -0.26698,-0.86786 -0.49808,-1.73762 -0.60143,-2.64253 -0.15513,-0.91908 -0.24721,-1.84753 -0.41904,-2.76418 -0.0835,-0.72107 -0.14154,-1.44364 -0.12565,-2.17019 -0.009,-0.73673 -0.012,-1.47349 -0.0193,-2.2102 -0.0104,-1.30833 0.025,-2.61672 0.13808,-3.92075 0.27484,-2.97199 0.76183,-5.91529 1.36566,-8.83793 0.58813,-3.15751 1.18426,-6.31206 1.99093,-9.42231 0.48234,-1.88934 1.09407,-3.73875 1.57673,-5.62658 0.40813,-2.06886 0.56959,-4.15031 0.33703,-6.25599 -0.23605,-3.43657 -0.6053,-6.88563 -1.72772,-10.16434 -1.39702,-4.11827 -2.78669,-8.29043 -5.30686,-11.88781 -2.43198,-3.11018 -5.41812,-5.67918 -8.60578,-7.99862 -3.46817,-2.35966 -7.1824,-4.53075 -11.40474,-5.13114 -3.11322,-0.28536 -6.23383,-0.27808 -9.32368,0.27027 -1.33903,0.26643 -2.06885,0.37692 -3.38696,0.78377 -5.69129,1.75665 -10.62372,5.4233 -15.46456,8.82163 -1.699,1.31832 -3.54971,2.45753 -5.10029,3.95029 -0.82815,0.8877 -1.52223,1.89394 -2.07997,2.97278 -1.05923,2.09825 -2.08391,4.21309 -3.11423,6.32528 0,0 10.21625,-4.61774 10.21625,-4.61774 z"
       inkscape:export-xdpi="96"
       inkscape:export-ydpi="96" />
  </g>
</svg>
