<?xml version="1.0" encoding="utf-8"?>
<!DOCTYPE svg PUBLIC "-//W3C//DTD SVG 1.1//EN" "http://www.w3.org/Graphics/SVG/1.1/DTD/svg11.dtd">
<svg version="1.1" id="Layer_1" xmlns="http://www.w3.org/2000/svg" xmlns:xlink="http://www.w3.org/1999/xlink" x="0px" y="0px"
width="1155px" height="1155px" viewBox="0 0 1155 1155" enable-background="new 0 0 1155 1155" xml:space="preserve">
<rect x="0" y="0" width="1155" height="1155" fill="rgb(253,246,227)" /><g transform="translate(70,70)"><g transform="translate(315,0) scale(0.35,0.35)"><g transform="" style="fill: rgb(101, 123, 131);">
<path d="M99.999,73.426C99.999,85.11,100,100,100,100s-34.008,0-49.953-0.001c-12.452,0.001-49.952,0-49.952,0V74.931
	c0,0-2.101-65.501,13.486-73.267C37.695-10.353,99.999,45.737,99.999,73.426z"/>
</g></g><g transform="translate(420,0) scale(0.35,0.35)"><g transform="" style="fill: rgb(101, 123, 131);">
<g>
	<path d="M100,34.375V0H34.375C24.87,0,16.764,3.353,10.059,10.059S0,24.87,0,34.375V100h100V34.375z"/>
</g>
</g></g><g transform="translate(455,0) scale(0.35,0.35)"><g transform="" style="fill: rgb(101, 123, 131);">
<path d="M26.574,99.999C14.89,99.999,0,100,0,100s0-34.008,0.001-49.953c-0.001-12.453,0-49.953,0-49.953h25.068
	c0,0,64.501-2.101,72.268,13.486C109.354,37.695,54.264,99.999,26.574,99.999z"/>
</g></g><g transform="translate(560,0) scale(0.35,0.35)"><g transform="" style="fill: rgb(101, 123, 131);">
<path d="M99.999,73.426C99.999,85.11,100,100,100,100s-34.008,0-49.953-0.001c-12.452,0.001-49.952,0-49.952,0V74.931
	c0,0-2.101-65.501,13.486-73.267C37.695-10.353,99.999,45.737,99.999,73.426z"/>
</g></g><g transform="translate(665,0) scale(0.35,0.35)"><g transform="" style="fill: rgb(101, 123, 131);">
<path d="M99.999,73.426C99.999,85.11,100,100,100,100s-34.008,0-49.953-0.001c-12.452,0.001-49.952,0-49.952,0V74.931
	c0,0-2.101-65.501,13.486-73.267C37.695-10.353,99.999,45.737,99.999,73.426z"/>
</g></g><g transform="translate(280,35) scale(0.35,0.35)"><g transform="" style="fill: rgb(101, 123, 131);">
<path d="M73.425,0.001C85.11,0.001,100,0,100,0s0,34.008-0.001,49.953c0.001,12.452,0,49.952,0,49.952H74.931
	c0,0-65.501,2.1-73.268-13.486C-10.352,62.305,45.736,0.001,73.425,0.001z"/>
</g></g><g transform="translate(315,35) scale(0.35,0.35)"><g transform="" style="fill: rgb(101, 123, 131);">
<g>
	<path d="M100,0H0v100h65.625c9.506,0,17.611-3.354,24.316-10.059S100,75.131,100,65.625V0z"/>
</g>
</g></g><g transform="translate(385,35) scale(0.35,0.35)"><g transform="" style="fill: rgb(101, 123, 131);">
<g>
	<path d="M100,34.375V0H34.375C24.87,0,16.764,3.353,10.059,10.059S0,24.87,0,34.375V100h100V34.375z"/>
</g>
</g></g><g transform="translate(420,35) scale(0.35,0.35)"><g transform="" style="fill: rgb(101, 123, 131);">
<g>
	<path d="M100,0H0v100h65.625c9.506,0,17.611-3.354,24.316-10.059S100,75.131,100,65.625V0z"/>
</g>
</g></g><g transform="translate(490,35) scale(0.35,0.35)"><g transform="" style="fill: rgb(101, 123, 131);">
<g>
	<path d="M100,34.375V0H34.375C24.87,0,16.764,3.353,10.059,10.059S0,24.87,0,34.375V100h100V34.375z"/>
</g>
</g></g><g transform="translate(525,35) scale(0.35,0.35)"><g transform="" style="fill: rgb(101, 123, 131);">
<rect width="100" height="100"/>
</g></g><g transform="translate(560,35) scale(0.35,0.35)"><g transform="" style="fill: rgb(101, 123, 131);">
<rect width="100" height="100"/>
</g></g><g transform="translate(595,35) scale(0.35,0.35)"><g transform="" style="fill: rgb(101, 123, 131);">
<rect width="100" height="100"/>
</g></g><g transform="translate(630,35) scale(0.35,0.35)"><g transform="" style="fill: rgb(101, 123, 131);">
<rect width="100" height="100"/>
</g></g><g transform="translate(665,35) scale(0.35,0.35)"><g transform="" style="fill: rgb(101, 123, 131);">
<g>
	<path d="M100,0H0v100h65.625c9.506,0,17.611-3.354,24.316-10.059S100,75.131,100,65.625V0z"/>
</g>
</g></g><g transform="translate(385,70) scale(0.35,0.35)"><g transform="" style="fill: rgb(101, 123, 131);">
<path d="M0.001,25.574C0.001,13.89,0-1,0-1s34.008,0,49.953,0.001c12.452-0.001,49.952,0,49.952,0v25.068
	c0,0,2.101,65.501-13.486,73.267C62.305,109.353,0.001,53.264,0.001,25.574z"/>
</g></g><g transform="translate(455,70) scale(0.35,0.35)"><g transform="" style="fill: rgb(101, 123, 131);">
<g>
	<path d="M100,34.375V0H34.375C24.87,0,16.764,3.353,10.059,10.059S0,24.87,0,34.375V100h100V34.375z"/>
</g>
</g></g><g transform="translate(490,70) scale(0.35,0.35)"><g transform="" style="fill: rgb(101, 123, 131);">
<rect width="100" height="100"/>
</g></g><g transform="translate(560,70) scale(0.35,0.35)"><g transform="" style="fill: rgb(101, 123, 131);">
<path d="M0.001,25.574C0.001,13.89,0-1,0-1s34.008,0,49.953,0.001c12.452-0.001,49.952,0,49.952,0v25.068
	c0,0,2.101,65.501-13.486,73.267C62.305,109.353,0.001,53.264,0.001,25.574z"/>
</g></g><g transform="translate(700,70) scale(0.35,0.35)"><g transform="" style="fill: rgb(101, 123, 131);">
<g>
	<path d="M95.338,83.975C120.428,37.136,29.47-30.196,4.645,16.13C-20.399,62.878,70.625,130.076,95.338,83.975"/>
</g>
</g></g><g transform="translate(350,105) scale(0.35,0.35)"><g transform="" style="fill: rgb(101, 123, 131);">
<path d="M99.999,73.426C99.999,85.11,100,100,100,100s-34.008,0-49.953-0.001c-12.452,0.001-49.952,0-49.952,0V74.931
	c0,0-2.101-65.501,13.486-73.267C37.695-10.353,99.999,45.737,99.999,73.426z"/>
</g></g><g transform="translate(420,105) scale(0.35,0.35)"><g transform="" style="fill: rgb(101, 123, 131);">
<g>
	<path d="M100,34.375V0H34.375C24.87,0,16.764,3.353,10.059,10.059S0,24.87,0,34.375V100h100V34.375z"/>
</g>
</g></g><g transform="translate(455,105) scale(0.35,0.35)"><g transform="" style="fill: rgb(101, 123, 131);">
<rect width="100" height="100"/>
</g></g><g transform="translate(490,105) scale(0.35,0.35)"><g transform="" style="fill: rgb(101, 123, 131);">
<rect width="100" height="100"/>
</g></g><g transform="translate(525,105) scale(0.35,0.35)"><g transform="" style="fill: rgb(101, 123, 131);">
<path d="M26.574,99.999C14.89,99.999,0,100,0,100s0-34.008,0.001-49.953c-0.001-12.453,0-49.953,0-49.953h25.068
	c0,0,64.501-2.101,72.268,13.486C109.354,37.695,54.264,99.999,26.574,99.999z"/>
</g></g><g transform="translate(630,105) scale(0.35,0.35)"><g transform="" style="fill: rgb(101, 123, 131);">
<path d="M99.999,73.426C99.999,85.11,100,100,100,100s-34.008,0-49.953-0.001c-12.452,0.001-49.952,0-49.952,0V74.931
	c0,0-2.101-65.501,13.486-73.267C37.695-10.353,99.999,45.737,99.999,73.426z"/>
</g></g><g transform="translate(280,140) scale(0.35,0.35)"><g transform="" style="fill: rgb(101, 123, 131);">
<g>
	<path d="M95.338,83.975C120.428,37.136,29.47-30.196,4.645,16.13C-20.399,62.878,70.625,130.076,95.338,83.975"/>
</g>
</g></g><g transform="translate(350,140) scale(0.35,0.35)"><g transform="" style="fill: rgb(101, 123, 131);">
<rect width="100" height="100"/>
</g></g><g transform="translate(420,140) scale(0.35,0.35)"><g transform="" style="fill: rgb(101, 123, 131);">
<rect width="100" height="100"/>
</g></g><g transform="translate(490,140) scale(0.35,0.35)"><g transform="" style="fill: rgb(101, 123, 131);">
<path d="M0.001,25.574C0.001,13.89,0-1,0-1s34.008,0,49.953,0.001c12.452-0.001,49.952,0,49.952,0v25.068
	c0,0,2.101,65.501-13.486,73.267C62.305,109.353,0.001,53.264,0.001,25.574z"/>
</g></g><g transform="translate(630,140) scale(0.35,0.35)"><g transform="" style="fill: rgb(101, 123, 131);">
<g>
	<path d="M100,0H0v65.625c0,9.506,3.353,17.611,10.059,24.316S24.87,100,34.375,100H100V0z"/>
</g>
</g></g><g transform="translate(665,140) scale(0.35,0.35)"><g transform="" style="fill: rgb(101, 123, 131);">
<g>
	<path d="M100,34.375c0-9.505-3.354-17.611-10.059-24.316S75.131,0,65.625,0H0v100h100V34.375z"/>
</g>
</g></g><g transform="translate(350,175) scale(0.35,0.35)"><g transform="" style="fill: rgb(101, 123, 131);">
<rect width="100" height="100"/>
</g></g><g transform="translate(385,175) scale(0.35,0.35)"><g transform="" style="fill: rgb(101, 123, 131);">
<rect width="100" height="100"/>
</g></g><g transform="translate(420,175) scale(0.35,0.35)"><g transform="" style="fill: rgb(101, 123, 131);">
<rect width="100" height="100"/>
</g></g><g transform="translate(455,175) scale(0.35,0.35)"><g transform="" style="fill: rgb(101, 123, 131);">
<path d="M26.574,99.999C14.89,99.999,0,100,0,100s0-34.008,0.001-49.953c-0.001-12.453,0-49.953,0-49.953h25.068
	c0,0,64.501-2.101,72.268,13.486C109.354,37.695,54.264,99.999,26.574,99.999z"/>
</g></g><g transform="translate(665,175) scale(0.35,0.35)"><g transform="" style="fill: rgb(101, 123, 131);">
<path d="M0.001,25.574C0.001,13.89,0-1,0-1s34.008,0,49.953,0.001c12.452-0.001,49.952,0,49.952,0v25.068
	c0,0,2.101,65.501-13.486,73.267C62.305,109.353,0.001,53.264,0.001,25.574z"/>
</g></g><g transform="translate(280,210) scale(0.35,0.35)"><g transform="" style="fill: rgb(101, 123, 131);">
<g>
	<path d="M95.338,83.975C120.428,37.136,29.47-30.196,4.645,16.13C-20.399,62.878,70.625,130.076,95.338,83.975"/>
</g>
</g></g><g transform="translate(350,210) scale(0.35,0.35)"><g transform="" style="fill: rgb(101, 123, 131);">
<path d="M0.001,25.574C0.001,13.89,0-1,0-1s34.008,0,49.953,0.001c12.452-0.001,49.952,0,49.952,0v25.068
	c0,0,2.101,65.501-13.486,73.267C62.305,109.353,0.001,53.264,0.001,25.574z"/>
</g></g><g transform="translate(420,210) scale(0.35,0.35)"><g transform="" style="fill: rgb(101, 123, 131);">
<rect width="100" height="100"/>
</g></g><g transform="translate(490,210) scale(0.35,0.35)"><g transform="" style="fill: rgb(101, 123, 131);">
<path d="M99.999,73.426C99.999,85.11,100,100,100,100s-34.008,0-49.953-0.001c-12.452,0.001-49.952,0-49.952,0V74.931
	c0,0-2.101-65.501,13.486-73.267C37.695-10.353,99.999,45.737,99.999,73.426z"/>
</g></g><g transform="translate(560,210) scale(0.35,0.35)"><g transform="" style="fill: rgb(101, 123, 131);">
<path d="M99.999,73.426C99.999,85.11,100,100,100,100s-34.008,0-49.953-0.001c-12.452,0.001-49.952,0-49.952,0V74.931
	c0,0-2.101-65.501,13.486-73.267C37.695-10.353,99.999,45.737,99.999,73.426z"/>
</g></g><g transform="translate(630,210) scale(0.35,0.35)"><g transform="" style="fill: rgb(101, 123, 131);">
<g>
	<path d="M95.338,83.975C120.428,37.136,29.47-30.196,4.645,16.13C-20.399,62.878,70.625,130.076,95.338,83.975"/>
</g>
</g></g><g transform="translate(700,210) scale(0.35,0.35)"><g transform="" style="fill: rgb(101, 123, 131);">
<path d="M99.999,73.426C99.999,85.11,100,100,100,100s-34.008,0-49.953-0.001c-12.452,0.001-49.952,0-49.952,0V74.931
	c0,0-2.101-65.501,13.486-73.267C37.695-10.353,99.999,45.737,99.999,73.426z"/>
</g></g><g transform="translate(420,245) scale(0.35,0.35)"><g transform="" style="fill: rgb(101, 123, 131);">
<g>
	<path d="M100,0H0v65.625c0,9.506,3.353,17.611,10.059,24.316S24.87,100,34.375,100H100V0z"/>
</g>
</g></g><g transform="translate(455,245) scale(0.35,0.35)"><g transform="" style="fill: rgb(101, 123, 131);">
<rect width="100" height="100"/>
</g></g><g transform="translate(490,245) scale(0.35,0.35)"><g transform="" style="fill: rgb(101, 123, 131);">
<rect width="100" height="100"/>
</g></g><g transform="translate(560,245) scale(0.35,0.35)"><g transform="" style="fill: rgb(101, 123, 131);">
<g>
	<path d="M100,0H0v65.625c0,9.506,3.353,17.611,10.059,24.316S24.87,100,34.375,100H100V0z"/>
</g>
</g></g><g transform="translate(595,245) scale(0.35,0.35)"><g transform="" style="fill: rgb(101, 123, 131);">
<g>
	<path d="M100,34.375c0-9.505-3.354-17.611-10.059-24.316S75.131,0,65.625,0H0v100h100V34.375z"/>
</g>
</g></g><g transform="translate(665,245) scale(0.35,0.35)"><g transform="" style="fill: rgb(101, 123, 131);">
<path d="M73.425,0.001C85.11,0.001,100,0,100,0s0,34.008-0.001,49.953c0.001,12.452,0,49.952,0,49.952H74.931
	c0,0-65.501,2.1-73.268-13.486C-10.352,62.305,45.736,0.001,73.425,0.001z"/>
</g></g><g transform="translate(700,245) scale(0.35,0.35)"><g transform="" style="fill: rgb(101, 123, 131);">
<g>
	<path d="M100,0H0v100h65.625c9.506,0,17.611-3.354,24.316-10.059S100,75.131,100,65.625V0z"/>
</g>
</g></g><g transform="translate(0,280) scale(0.35,0.35)"><g transform="" style="fill: rgb(101, 123, 131);">
<path d="M99.999,73.426C99.999,85.11,100,100,100,100s-34.008,0-49.953-0.001c-12.452,0.001-49.952,0-49.952,0V74.931
	c0,0-2.101-65.501,13.486-73.267C37.695-10.353,99.999,45.737,99.999,73.426z"/>
</g></g><g transform="translate(70,280) scale(0.35,0.35)"><g transform="" style="fill: rgb(101, 123, 131);">
<path d="M99.999,73.426C99.999,85.11,100,100,100,100s-34.008,0-49.953-0.001c-12.452,0.001-49.952,0-49.952,0V74.931
	c0,0-2.101-65.501,13.486-73.267C37.695-10.353,99.999,45.737,99.999,73.426z"/>
</g></g><g transform="translate(140,280) scale(0.35,0.35)"><g transform="" style="fill: rgb(101, 123, 131);">
<path d="M99.999,73.426C99.999,85.11,100,100,100,100s-34.008,0-49.953-0.001c-12.452,0.001-49.952,0-49.952,0V74.931
	c0,0-2.101-65.501,13.486-73.267C37.695-10.353,99.999,45.737,99.999,73.426z"/>
</g></g><g transform="translate(210,280) scale(0.35,0.35)"><g transform="" style="fill: rgb(101, 123, 131);">
<g>
	<path d="M95.338,83.975C120.428,37.136,29.47-30.196,4.645,16.13C-20.399,62.878,70.625,130.076,95.338,83.975"/>
</g>
</g></g><g transform="translate(315,280) scale(0.35,0.35)"><g transform="" style="fill: rgb(101, 123, 131);">
<g>
	<path d="M95.338,83.975C120.428,37.136,29.47-30.196,4.645,16.13C-20.399,62.878,70.625,130.076,95.338,83.975"/>
</g>
</g></g><g transform="translate(385,280) scale(0.35,0.35)"><g transform="" style="fill: rgb(101, 123, 131);">
<g>
	<path d="M95.338,83.975C120.428,37.136,29.47-30.196,4.645,16.13C-20.399,62.878,70.625,130.076,95.338,83.975"/>
</g>
</g></g><g transform="translate(490,280) scale(0.35,0.35)"><g transform="" style="fill: rgb(101, 123, 131);">
<rect width="100" height="100"/>
</g></g><g transform="translate(525,280) scale(0.35,0.35)"><g transform="" style="fill: rgb(101, 123, 131);">
<g>
	<path d="M100,34.375c0-9.505-3.354-17.611-10.059-24.316S75.131,0,65.625,0H0v100h100V34.375z"/>
</g>
</g></g><g transform="translate(595,280) scale(0.35,0.35)"><g transform="" style="fill: rgb(101, 123, 131);">
<g>
	<path d="M100,0H0v65.625c0,9.506,3.353,17.611,10.059,24.316S24.87,100,34.375,100H100V0z"/>
</g>
</g></g><g transform="translate(630,280) scale(0.35,0.35)"><g transform="" style="fill: rgb(101, 123, 131);">
<path d="M26.574,99.999C14.89,99.999,0,100,0,100s0-34.008,0.001-49.953c-0.001-12.453,0-49.953,0-49.953h25.068
	c0,0,64.501-2.101,72.268,13.486C109.354,37.695,54.264,99.999,26.574,99.999z"/>
</g></g><g transform="translate(840,280) scale(0.35,0.35)"><g transform="" style="fill: rgb(101, 123, 131);">
<g>
	<path d="M95.338,83.975C120.428,37.136,29.47-30.196,4.645,16.13C-20.399,62.878,70.625,130.076,95.338,83.975"/>
</g>
</g></g><g transform="translate(945,280) scale(0.35,0.35)"><g transform="" style="fill: rgb(101, 123, 131);">
<g>
	<path d="M95.338,83.975C120.428,37.136,29.47-30.196,4.645,16.13C-20.399,62.878,70.625,130.076,95.338,83.975"/>
</g>
</g></g><g transform="translate(0,315) scale(0.35,0.35)"><g transform="" style="fill: rgb(101, 123, 131);">
<path d="M0.001,25.574C0.001,13.89,0-1,0-1s34.008,0,49.953,0.001c12.452-0.001,49.952,0,49.952,0v25.068
	c0,0,2.101,65.501-13.486,73.267C62.305,109.353,0.001,53.264,0.001,25.574z"/>
</g></g><g transform="translate(70,315) scale(0.35,0.35)"><g transform="" style="fill: rgb(101, 123, 131);">
<g>
	<path d="M100,0H0v65.625c0,9.506,3.353,17.611,10.059,24.316S24.87,100,34.375,100H100V0z"/>
</g>
</g></g><g transform="translate(105,315) scale(0.35,0.35)"><g transform="" style="fill: rgb(101, 123, 131);">
<rect width="100" height="100"/>
</g></g><g transform="translate(140,315) scale(0.35,0.35)"><g transform="" style="fill: rgb(101, 123, 131);">
<rect width="100" height="100"/>
</g></g><g transform="translate(175,315) scale(0.35,0.35)"><g transform="" style="fill: rgb(101, 123, 131);">
<path d="M26.574,99.999C14.89,99.999,0,100,0,100s0-34.008,0.001-49.953c-0.001-12.453,0-49.953,0-49.953h25.068
	c0,0,64.501-2.101,72.268,13.486C109.354,37.695,54.264,99.999,26.574,99.999z"/>
</g></g><g transform="translate(245,315) scale(0.35,0.35)"><g transform="" style="fill: rgb(101, 123, 131);">
<path d="M73.425,0.001C85.11,0.001,100,0,100,0s0,34.008-0.001,49.953c0.001,12.452,0,49.952,0,49.952H74.931
	c0,0-65.501,2.1-73.268-13.486C-10.352,62.305,45.736,0.001,73.425,0.001z"/>
</g></g><g transform="translate(280,315) scale(0.35,0.35)"><g transform="" style="fill: rgb(101, 123, 131);">
<path d="M26.574,99.999C14.89,99.999,0,100,0,100s0-34.008,0.001-49.953c-0.001-12.453,0-49.953,0-49.953h25.068
	c0,0,64.501-2.101,72.268,13.486C109.354,37.695,54.264,99.999,26.574,99.999z"/>
</g></g><g transform="translate(350,315) scale(0.35,0.35)"><g transform="" style="fill: rgb(101, 123, 131);">
<path d="M99.999,73.426C99.999,85.11,100,100,100,100s-34.008,0-49.953-0.001c-12.452,0.001-49.952,0-49.952,0V74.931
	c0,0-2.101-65.501,13.486-73.267C37.695-10.353,99.999,45.737,99.999,73.426z"/>
</g></g><g transform="translate(490,315) scale(0.35,0.35)"><g transform="" style="fill: rgb(101, 123, 131);">
<g>
	<path d="M100,0H0v65.625c0,9.506,3.353,17.611,10.059,24.316S24.87,100,34.375,100H100V0z"/>
</g>
</g></g><g transform="translate(525,315) scale(0.35,0.35)"><g transform="" style="fill: rgb(101, 123, 131);">
<g>
	<path d="M100,0H0v100h65.625c9.506,0,17.611-3.354,24.316-10.059S100,75.131,100,65.625V0z"/>
</g>
</g></g><g transform="translate(700,315) scale(0.35,0.35)"><g transform="" style="fill: rgb(101, 123, 131);">
<g>
	<path d="M95.338,83.975C120.428,37.136,29.47-30.196,4.645,16.13C-20.399,62.878,70.625,130.076,95.338,83.975"/>
</g>
</g></g><g transform="translate(770,315) scale(0.35,0.35)"><g transform="" style="fill: rgb(101, 123, 131);">
<path d="M99.999,73.426C99.999,85.11,100,100,100,100s-34.008,0-49.953-0.001c-12.452,0.001-49.952,0-49.952,0V74.931
	c0,0-2.101-65.501,13.486-73.267C37.695-10.353,99.999,45.737,99.999,73.426z"/>
</g></g><g transform="translate(875,315) scale(0.35,0.35)"><g transform="" style="fill: rgb(101, 123, 131);">
<g>
	<path d="M95.338,83.975C120.428,37.136,29.47-30.196,4.645,16.13C-20.399,62.878,70.625,130.076,95.338,83.975"/>
</g>
</g></g><g transform="translate(980,315) scale(0.35,0.35)"><g transform="" style="fill: rgb(101, 123, 131);">
<path d="M99.999,73.426C99.999,85.11,100,100,100,100s-34.008,0-49.953-0.001c-12.452,0.001-49.952,0-49.952,0V74.931
	c0,0-2.101-65.501,13.486-73.267C37.695-10.353,99.999,45.737,99.999,73.426z"/>
</g></g><g transform="translate(35,350) scale(0.35,0.35)"><g transform="" style="fill: rgb(101, 123, 131);">
<path d="M99.999,73.426C99.999,85.11,100,100,100,100s-34.008,0-49.953-0.001c-12.452,0.001-49.952,0-49.952,0V74.931
	c0,0-2.101-65.501,13.486-73.267C37.695-10.353,99.999,45.737,99.999,73.426z"/>
</g></g><g transform="translate(105,350) scale(0.35,0.35)"><g transform="" style="fill: rgb(101, 123, 131);">
<rect width="100" height="100"/>
</g></g><g transform="translate(210,350) scale(0.35,0.35)"><g transform="" style="fill: rgb(101, 123, 131);">
<g>
	<path d="M95.338,83.975C120.428,37.136,29.47-30.196,4.645,16.13C-20.399,62.878,70.625,130.076,95.338,83.975"/>
</g>
</g></g><g transform="translate(315,350) scale(0.35,0.35)"><g transform="" style="fill: rgb(101, 123, 131);">
<path d="M73.425,0.001C85.11,0.001,100,0,100,0s0,34.008-0.001,49.953c0.001,12.452,0,49.952,0,49.952H74.931
	c0,0-65.501,2.1-73.268-13.486C-10.352,62.305,45.736,0.001,73.425,0.001z"/>
</g></g><g transform="translate(350,350) scale(0.35,0.35)"><g transform="" style="fill: rgb(101, 123, 131);">
<g>
	<path d="M100,0H0v100h65.625c9.506,0,17.611-3.354,24.316-10.059S100,75.131,100,65.625V0z"/>
</g>
</g></g><g transform="translate(420,350) scale(0.35,0.35)"><g transform="" style="fill: rgb(101, 123, 131);">
<g>
	<path d="M100,34.375V0H34.375C24.87,0,16.764,3.353,10.059,10.059S0,24.87,0,34.375V100h100V34.375z"/>
</g>
</g></g><g transform="translate(455,350) scale(0.35,0.35)"><g transform="" style="fill: rgb(101, 123, 131);">
<path d="M26.574,99.999C14.89,99.999,0,100,0,100s0-34.008,0.001-49.953c-0.001-12.453,0-49.953,0-49.953h25.068
	c0,0,64.501-2.101,72.268,13.486C109.354,37.695,54.264,99.999,26.574,99.999z"/>
</g></g><g transform="translate(595,350) scale(0.35,0.35)"><g transform="" style="fill: rgb(101, 123, 131);">
<path d="M99.999,73.426C99.999,85.11,100,100,100,100s-34.008,0-49.953-0.001c-12.452,0.001-49.952,0-49.952,0V74.931
	c0,0-2.101-65.501,13.486-73.267C37.695-10.353,99.999,45.737,99.999,73.426z"/>
</g></g><g transform="translate(770,350) scale(0.35,0.35)"><g transform="" style="fill: rgb(101, 123, 131);">
<rect width="100" height="100"/>
</g></g><g transform="translate(805,350) scale(0.35,0.35)"><g transform="" style="fill: rgb(101, 123, 131);">
<path d="M26.574,99.999C14.89,99.999,0,100,0,100s0-34.008,0.001-49.953c-0.001-12.453,0-49.953,0-49.953h25.068
	c0,0,64.501-2.101,72.268,13.486C109.354,37.695,54.264,99.999,26.574,99.999z"/>
</g></g><g transform="translate(910,350) scale(0.35,0.35)"><g transform="" style="fill: rgb(101, 123, 131);">
<path d="M73.425,0.001C85.11,0.001,100,0,100,0s0,34.008-0.001,49.953c0.001,12.452,0,49.952,0,49.952H74.931
	c0,0-65.501,2.1-73.268-13.486C-10.352,62.305,45.736,0.001,73.425,0.001z"/>
</g></g><g transform="translate(945,350) scale(0.35,0.35)"><g transform="" style="fill: rgb(101, 123, 131);">
<rect width="100" height="100"/>
</g></g><g transform="translate(980,350) scale(0.35,0.35)"><g transform="" style="fill: rgb(101, 123, 131);">
<g>
	<path d="M100,0H0v100h65.625c9.506,0,17.611-3.354,24.316-10.059S100,75.131,100,65.625V0z"/>
</g>
</g></g><g transform="translate(35,385) scale(0.35,0.35)"><g transform="" style="fill: rgb(101, 123, 131);">
<rect width="100" height="100"/>
</g></g><g transform="translate(105,385) scale(0.35,0.35)"><g transform="" style="fill: rgb(101, 123, 131);">
<rect width="100" height="100"/>
</g></g><g transform="translate(140,385) scale(0.35,0.35)"><g transform="" style="fill: rgb(101, 123, 131);">
<path d="M26.574,99.999C14.89,99.999,0,100,0,100s0-34.008,0.001-49.953c-0.001-12.453,0-49.953,0-49.953h25.068
	c0,0,64.501-2.101,72.268,13.486C109.354,37.695,54.264,99.999,26.574,99.999z"/>
</g></g><g transform="translate(245,385) scale(0.35,0.35)"><g transform="" style="fill: rgb(101, 123, 131);">
<path d="M73.425,0.001C85.11,0.001,100,0,100,0s0,34.008-0.001,49.953c0.001,12.452,0,49.952,0,49.952H74.931
	c0,0-65.501,2.1-73.268-13.486C-10.352,62.305,45.736,0.001,73.425,0.001z"/>
</g></g><g transform="translate(280,385) scale(0.35,0.35)"><g transform="" style="fill: rgb(101, 123, 131);">
<path d="M26.574,99.999C14.89,99.999,0,100,0,100s0-34.008,0.001-49.953c-0.001-12.453,0-49.953,0-49.953h25.068
	c0,0,64.501-2.101,72.268,13.486C109.354,37.695,54.264,99.999,26.574,99.999z"/>
</g></g><g transform="translate(420,385) scale(0.35,0.35)"><g transform="" style="fill: rgb(101, 123, 131);">
<rect width="100" height="100"/>
</g></g><g transform="translate(525,385) scale(0.35,0.35)"><g transform="" style="fill: rgb(101, 123, 131);">
<g>
	<path d="M95.338,83.975C120.428,37.136,29.47-30.196,4.645,16.13C-20.399,62.878,70.625,130.076,95.338,83.975"/>
</g>
</g></g><g transform="translate(595,385) scale(0.35,0.35)"><g transform="" style="fill: rgb(101, 123, 131);">
<rect width="100" height="100"/>
</g></g><g transform="translate(665,385) scale(0.35,0.35)"><g transform="" style="fill: rgb(101, 123, 131);">
<path d="M99.999,73.426C99.999,85.11,100,100,100,100s-34.008,0-49.953-0.001c-12.452,0.001-49.952,0-49.952,0V74.931
	c0,0-2.101-65.501,13.486-73.267C37.695-10.353,99.999,45.737,99.999,73.426z"/>
</g></g><g transform="translate(735,385) scale(0.35,0.35)"><g transform="" style="fill: rgb(101, 123, 131);">
<g>
	<path d="M100,34.375V0H34.375C24.87,0,16.764,3.353,10.059,10.059S0,24.87,0,34.375V100h100V34.375z"/>
</g>
</g></g><g transform="translate(770,385) scale(0.35,0.35)"><g transform="" style="fill: rgb(101, 123, 131);">
<rect width="100" height="100"/>
</g></g><g transform="translate(840,385) scale(0.35,0.35)"><g transform="" style="fill: rgb(101, 123, 131);">
<g>
	<path d="M95.338,83.975C120.428,37.136,29.47-30.196,4.645,16.13C-20.399,62.878,70.625,130.076,95.338,83.975"/>
</g>
</g></g><g transform="translate(945,385) scale(0.35,0.35)"><g transform="" style="fill: rgb(101, 123, 131);">
<rect width="100" height="100"/>
</g></g><g transform="translate(35,420) scale(0.35,0.35)"><g transform="" style="fill: rgb(101, 123, 131);">
<path d="M0.001,25.574C0.001,13.89,0-1,0-1s34.008,0,49.953,0.001c12.452-0.001,49.952,0,49.952,0v25.068
	c0,0,2.101,65.501-13.486,73.267C62.305,109.353,0.001,53.264,0.001,25.574z"/>
</g></g><g transform="translate(105,420) scale(0.35,0.35)"><g transform="" style="fill: rgb(101, 123, 131);">
<path d="M0.001,25.574C0.001,13.89,0-1,0-1s34.008,0,49.953,0.001c12.452-0.001,49.952,0,49.952,0v25.068
	c0,0,2.101,65.501-13.486,73.267C62.305,109.353,0.001,53.264,0.001,25.574z"/>
</g></g><g transform="translate(175,420) scale(0.35,0.35)"><g transform="" style="fill: rgb(101, 123, 131);">
<path d="M73.425,0.001C85.11,0.001,100,0,100,0s0,34.008-0.001,49.953c0.001,12.452,0,49.952,0,49.952H74.931
	c0,0-65.501,2.1-73.268-13.486C-10.352,62.305,45.736,0.001,73.425,0.001z"/>
</g></g><g transform="translate(210,420) scale(0.35,0.35)"><g transform="" style="fill: rgb(101, 123, 131);">
<path d="M26.574,99.999C14.89,99.999,0,100,0,100s0-34.008,0.001-49.953c-0.001-12.453,0-49.953,0-49.953h25.068
	c0,0,64.501-2.101,72.268,13.486C109.354,37.695,54.264,99.999,26.574,99.999z"/>
</g></g><g transform="translate(350,420) scale(0.35,0.35)"><g transform="" style="fill: rgb(101, 123, 131);">
<g>
	<path d="M95.338,83.975C120.428,37.136,29.47-30.196,4.645,16.13C-20.399,62.878,70.625,130.076,95.338,83.975"/>
</g>
</g></g><g transform="translate(420,420) scale(0.35,0.35)"><g transform="" style="fill: rgb(101, 123, 131);">
<path d="M0.001,25.574C0.001,13.89,0-1,0-1s34.008,0,49.953,0.001c12.452-0.001,49.952,0,49.952,0v25.068
	c0,0,2.101,65.501-13.486,73.267C62.305,109.353,0.001,53.264,0.001,25.574z"/>
</g></g><g transform="translate(560,420) scale(0.35,0.35)"><g transform="" style="fill: rgb(101, 123, 131);">
<g>
	<path d="M100,34.375V0H34.375C24.87,0,16.764,3.353,10.059,10.059S0,24.87,0,34.375V100h100V34.375z"/>
</g>
</g></g><g transform="translate(595,420) scale(0.35,0.35)"><g transform="" style="fill: rgb(101, 123, 131);">
<g>
	<path d="M100,0H0v100h65.625c9.506,0,17.611-3.354,24.316-10.059S100,75.131,100,65.625V0z"/>
</g>
</g></g><g transform="translate(665,420) scale(0.35,0.35)"><g transform="" style="fill: rgb(101, 123, 131);">
<g>
	<path d="M100,0H0v65.625c0,9.506,3.353,17.611,10.059,24.316S24.87,100,34.375,100H100V0z"/>
</g>
</g></g><g transform="translate(700,420) scale(0.35,0.35)"><g transform="" style="fill: rgb(101, 123, 131);">
<rect width="100" height="100"/>
</g></g><g transform="translate(735,420) scale(0.35,0.35)"><g transform="" style="fill: rgb(101, 123, 131);">
<rect width="100" height="100"/>
</g></g><g transform="translate(770,420) scale(0.35,0.35)"><g transform="" style="fill: rgb(101, 123, 131);">
<rect width="100" height="100"/>
</g></g><g transform="translate(875,420) scale(0.35,0.35)"><g transform="" style="fill: rgb(101, 123, 131);">
<path d="M99.999,73.426C99.999,85.11,100,100,100,100s-34.008,0-49.953-0.001c-12.452,0.001-49.952,0-49.952,0V74.931
	c0,0-2.101-65.501,13.486-73.267C37.695-10.353,99.999,45.737,99.999,73.426z"/>
</g></g><g transform="translate(945,420) scale(0.35,0.35)"><g transform="" style="fill: rgb(101, 123, 131);">
<g>
	<path d="M100,0H0v65.625c0,9.506,3.353,17.611,10.059,24.316S24.87,100,34.375,100H100V0z"/>
</g>
</g></g><g transform="translate(980,420) scale(0.35,0.35)"><g transform="" style="fill: rgb(101, 123, 131);">
<g>
	<path d="M100,34.375c0-9.505-3.354-17.611-10.059-24.316S75.131,0,65.625,0H0v100h100V34.375z"/>
</g>
</g></g><g transform="translate(70,455) scale(0.35,0.35)"><g transform="" style="fill: rgb(101, 123, 131);">
<path d="M99.999,73.426C99.999,85.11,100,100,100,100s-34.008,0-49.953-0.001c-12.452,0.001-49.952,0-49.952,0V74.931
	c0,0-2.101-65.501,13.486-73.267C37.695-10.353,99.999,45.737,99.999,73.426z"/>
</g></g><g transform="translate(140,455) scale(0.35,0.35)"><g transform="" style="fill: rgb(101, 123, 131);">
<path d="M99.999,73.426C99.999,85.11,100,100,100,100s-34.008,0-49.953-0.001c-12.452,0.001-49.952,0-49.952,0V74.931
	c0,0-2.101-65.501,13.486-73.267C37.695-10.353,99.999,45.737,99.999,73.426z"/>
</g></g><g transform="translate(315,455) scale(0.35,0.35)"><g transform="" style="fill: rgb(101, 123, 131);">
<g>
	<path d="M95.338,83.975C120.428,37.136,29.47-30.196,4.645,16.13C-20.399,62.878,70.625,130.076,95.338,83.975"/>
</g>
</g></g><g transform="translate(455,455) scale(0.35,0.35)"><g transform="" style="fill: rgb(101, 123, 131);">
<g>
	<path d="M95.338,83.975C120.428,37.136,29.47-30.196,4.645,16.13C-20.399,62.878,70.625,130.076,95.338,83.975"/>
</g>
</g></g><g transform="translate(525,455) scale(0.35,0.35)"><g transform="" style="fill: rgb(101, 123, 131);">
<g>
	<path d="M100,34.375V0H34.375C24.87,0,16.764,3.353,10.059,10.059S0,24.87,0,34.375V100h100V34.375z"/>
</g>
</g></g><g transform="translate(560,455) scale(0.35,0.35)"><g transform="" style="fill: rgb(101, 123, 131);">
<rect width="100" height="100"/>
</g></g><g transform="translate(700,455) scale(0.35,0.35)"><g transform="" style="fill: rgb(101, 123, 131);">
<g>
	<path d="M100,0H0v65.625c0,9.506,3.353,17.611,10.059,24.316S24.87,100,34.375,100H100V0z"/>
</g>
</g></g><g transform="translate(735,455) scale(0.35,0.35)"><g transform="" style="fill: rgb(101, 123, 131);">
<rect width="100" height="100"/>
</g></g><g transform="translate(770,455) scale(0.35,0.35)"><g transform="" style="fill: rgb(101, 123, 131);">
<g>
	<path d="M100,0H0v100h65.625c9.506,0,17.611-3.354,24.316-10.059S100,75.131,100,65.625V0z"/>
</g>
</g></g><g transform="translate(875,455) scale(0.35,0.35)"><g transform="" style="fill: rgb(101, 123, 131);">
<rect width="100" height="100"/>
</g></g><g transform="translate(980,455) scale(0.35,0.35)"><g transform="" style="fill: rgb(101, 123, 131);">
<rect width="100" height="100"/>
</g></g><g transform="translate(35,490) scale(0.35,0.35)"><g transform="" style="fill: rgb(101, 123, 131);">
<path d="M73.425,0.001C85.11,0.001,100,0,100,0s0,34.008-0.001,49.953c0.001,12.452,0,49.952,0,49.952H74.931
	c0,0-65.501,2.1-73.268-13.486C-10.352,62.305,45.736,0.001,73.425,0.001z"/>
</g></g><g transform="translate(70,490) scale(0.35,0.35)"><g transform="" style="fill: rgb(101, 123, 131);">
<rect width="100" height="100"/>
</g></g><g transform="translate(105,490) scale(0.35,0.35)"><g transform="" style="fill: rgb(101, 123, 131);">
<rect width="100" height="100"/>
</g></g><g transform="translate(140,490) scale(0.35,0.35)"><g transform="" style="fill: rgb(101, 123, 131);">
<rect width="100" height="100"/>
</g></g><g transform="translate(175,490) scale(0.35,0.35)"><g transform="" style="fill: rgb(101, 123, 131);">
<rect width="100" height="100"/>
</g></g><g transform="translate(210,490) scale(0.35,0.35)"><g transform="" style="fill: rgb(101, 123, 131);">
<path d="M26.574,99.999C14.89,99.999,0,100,0,100s0-34.008,0.001-49.953c-0.001-12.453,0-49.953,0-49.953h25.068
	c0,0,64.501-2.101,72.268,13.486C109.354,37.695,54.264,99.999,26.574,99.999z"/>
</g></g><g transform="translate(280,490) scale(0.35,0.35)"><g transform="" style="fill: rgb(101, 123, 131);">
<path d="M99.999,73.426C99.999,85.11,100,100,100,100s-34.008,0-49.953-0.001c-12.452,0.001-49.952,0-49.952,0V74.931
	c0,0-2.101-65.501,13.486-73.267C37.695-10.353,99.999,45.737,99.999,73.426z"/>
</g></g><g transform="translate(385,490) scale(0.35,0.35)"><g transform="" style="fill: rgb(101, 123, 131);">
<g>
	<path d="M100,34.375V0H34.375C24.87,0,16.764,3.353,10.059,10.059S0,24.87,0,34.375V100h100V34.375z"/>
</g>
</g></g><g transform="translate(420,490) scale(0.35,0.35)"><g transform="" style="fill: rgb(101, 123, 131);">
<path d="M26.574,99.999C14.89,99.999,0,100,0,100s0-34.008,0.001-49.953c-0.001-12.453,0-49.953,0-49.953h25.068
	c0,0,64.501-2.101,72.268,13.486C109.354,37.695,54.264,99.999,26.574,99.999z"/>
</g></g><g transform="translate(490,490) scale(0.35,0.35)"><g transform="" style="fill: rgb(101, 123, 131);">
<g>
	<path d="M100,34.375V0H34.375C24.87,0,16.764,3.353,10.059,10.059S0,24.87,0,34.375V100h100V34.375z"/>
</g>
</g></g><g transform="translate(525,490) scale(0.35,0.35)"><g transform="" style="fill: rgb(101, 123, 131);">
<rect width="100" height="100"/>
</g></g><g transform="translate(560,490) scale(0.35,0.35)"><g transform="" style="fill: rgb(101, 123, 131);">
<rect width="100" height="100"/>
</g></g><g transform="translate(630,490) scale(0.35,0.35)"><g transform="" style="fill: rgb(101, 123, 131);">
<path d="M99.999,73.426C99.999,85.11,100,100,100,100s-34.008,0-49.953-0.001c-12.452,0.001-49.952,0-49.952,0V74.931
	c0,0-2.101-65.501,13.486-73.267C37.695-10.353,99.999,45.737,99.999,73.426z"/>
</g></g><g transform="translate(805,490) scale(0.35,0.35)"><g transform="" style="fill: rgb(101, 123, 131);">
<path d="M99.999,73.426C99.999,85.11,100,100,100,100s-34.008,0-49.953-0.001c-12.452,0.001-49.952,0-49.952,0V74.931
	c0,0-2.101-65.501,13.486-73.267C37.695-10.353,99.999,45.737,99.999,73.426z"/>
</g></g><g transform="translate(875,490) scale(0.35,0.35)"><g transform="" style="fill: rgb(101, 123, 131);">
<rect width="100" height="100"/>
</g></g><g transform="translate(945,490) scale(0.35,0.35)"><g transform="" style="fill: rgb(101, 123, 131);">
<g>
	<path d="M100,34.375V0H34.375C24.87,0,16.764,3.353,10.059,10.059S0,24.87,0,34.375V100h100V34.375z"/>
</g>
</g></g><g transform="translate(980,490) scale(0.35,0.35)"><g transform="" style="fill: rgb(101, 123, 131);">
<g>
	<path d="M100,0H0v100h65.625c9.506,0,17.611-3.354,24.316-10.059S100,75.131,100,65.625V0z"/>
</g>
</g></g><g transform="translate(0,525) scale(0.35,0.35)"><g transform="" style="fill: rgb(101, 123, 131);">
<g>
	<path d="M95.338,83.975C120.428,37.136,29.47-30.196,4.645,16.13C-20.399,62.878,70.625,130.076,95.338,83.975"/>
</g>
</g></g><g transform="translate(70,525) scale(0.35,0.35)"><g transform="" style="fill: rgb(101, 123, 131);">
<g>
	<path d="M100,0H0v65.625c0,9.506,3.353,17.611,10.059,24.316S24.87,100,34.375,100H100V0z"/>
</g>
</g></g><g transform="translate(105,525) scale(0.35,0.35)"><g transform="" style="fill: rgb(101, 123, 131);">
<rect width="100" height="100"/>
</g></g><g transform="translate(140,525) scale(0.35,0.35)"><g transform="" style="fill: rgb(101, 123, 131);">
<rect width="100" height="100"/>
</g></g><g transform="translate(175,525) scale(0.35,0.35)"><g transform="" style="fill: rgb(101, 123, 131);">
<g>
	<path d="M100,0H0v100h65.625c9.506,0,17.611-3.354,24.316-10.059S100,75.131,100,65.625V0z"/>
</g>
</g></g><g transform="translate(280,525) scale(0.35,0.35)"><g transform="" style="fill: rgb(101, 123, 131);">
<rect width="100" height="100"/>
</g></g><g transform="translate(350,525) scale(0.35,0.35)"><g transform="" style="fill: rgb(101, 123, 131);">
<g>
	<path d="M100,34.375V0H34.375C24.87,0,16.764,3.353,10.059,10.059S0,24.87,0,34.375V100h100V34.375z"/>
</g>
</g></g><g transform="translate(385,525) scale(0.35,0.35)"><g transform="" style="fill: rgb(101, 123, 131);">
<rect width="100" height="100"/>
</g></g><g transform="translate(455,525) scale(0.35,0.35)"><g transform="" style="fill: rgb(101, 123, 131);">
<path d="M73.425,0.001C85.11,0.001,100,0,100,0s0,34.008-0.001,49.953c0.001,12.452,0,49.952,0,49.952H74.931
	c0,0-65.501,2.1-73.268-13.486C-10.352,62.305,45.736,0.001,73.425,0.001z"/>
</g></g><g transform="translate(490,525) scale(0.35,0.35)"><g transform="" style="fill: rgb(101, 123, 131);">
<rect width="100" height="100"/>
</g></g><g transform="translate(560,525) scale(0.35,0.35)"><g transform="" style="fill: rgb(101, 123, 131);">
<g>
	<path d="M100,0H0v65.625c0,9.506,3.353,17.611,10.059,24.316S24.87,100,34.375,100H100V0z"/>
</g>
</g></g><g transform="translate(595,525) scale(0.35,0.35)"><g transform="" style="fill: rgb(101, 123, 131);">
<rect width="100" height="100"/>
</g></g><g transform="translate(630,525) scale(0.35,0.35)"><g transform="" style="fill: rgb(101, 123, 131);">
<g>
	<path d="M100,0H0v100h65.625c9.506,0,17.611-3.354,24.316-10.059S100,75.131,100,65.625V0z"/>
</g>
</g></g><g transform="translate(700,525) scale(0.35,0.35)"><g transform="" style="fill: rgb(101, 123, 131);">
<g>
	<path d="M100,34.375V0H34.375C24.87,0,16.764,3.353,10.059,10.059S0,24.87,0,34.375V100h100V34.375z"/>
</g>
</g></g><g transform="translate(735,525) scale(0.35,0.35)"><g transform="" style="fill: rgb(101, 123, 131);">
<rect width="100" height="100"/>
</g></g><g transform="translate(770,525) scale(0.35,0.35)"><g transform="" style="fill: rgb(101, 123, 131);">
<rect width="100" height="100"/>
</g></g><g transform="translate(805,525) scale(0.35,0.35)"><g transform="" style="fill: rgb(101, 123, 131);">
<rect width="100" height="100"/>
</g></g><g transform="translate(840,525) scale(0.35,0.35)"><g transform="" style="fill: rgb(101, 123, 131);">
<rect width="100" height="100"/>
</g></g><g transform="translate(875,525) scale(0.35,0.35)"><g transform="" style="fill: rgb(101, 123, 131);">
<rect width="100" height="100"/>
</g></g><g transform="translate(945,525) scale(0.35,0.35)"><g transform="" style="fill: rgb(101, 123, 131);">
<rect width="100" height="100"/>
</g></g><g transform="translate(35,560) scale(0.35,0.35)"><g transform="" style="fill: rgb(101, 123, 131);">
<g>
	<path d="M95.338,83.975C120.428,37.136,29.47-30.196,4.645,16.13C-20.399,62.878,70.625,130.076,95.338,83.975"/>
</g>
</g></g><g transform="translate(140,560) scale(0.35,0.35)"><g transform="" style="fill: rgb(101, 123, 131);">
<rect width="100" height="100"/>
</g></g><g transform="translate(210,560) scale(0.35,0.35)"><g transform="" style="fill: rgb(101, 123, 131);">
<path d="M73.425,0.001C85.11,0.001,100,0,100,0s0,34.008-0.001,49.953c0.001,12.452,0,49.952,0,49.952H74.931
	c0,0-65.501,2.1-73.268-13.486C-10.352,62.305,45.736,0.001,73.425,0.001z"/>
</g></g><g transform="translate(245,560) scale(0.35,0.35)"><g transform="" style="fill: rgb(101, 123, 131);">
<rect width="100" height="100"/>
</g></g><g transform="translate(280,560) scale(0.35,0.35)"><g transform="" style="fill: rgb(101, 123, 131);">
<rect width="100" height="100"/>
</g></g><g transform="translate(315,560) scale(0.35,0.35)"><g transform="" style="fill: rgb(101, 123, 131);">
<rect width="100" height="100"/>
</g></g><g transform="translate(350,560) scale(0.35,0.35)"><g transform="" style="fill: rgb(101, 123, 131);">
<rect width="100" height="100"/>
</g></g><g transform="translate(385,560) scale(0.35,0.35)"><g transform="" style="fill: rgb(101, 123, 131);">
<rect width="100" height="100"/>
</g></g><g transform="translate(420,560) scale(0.35,0.35)"><g transform="" style="fill: rgb(101, 123, 131);">
<g>
	<path d="M100,34.375c0-9.505-3.354-17.611-10.059-24.316S75.131,0,65.625,0H0v100h100V34.375z"/>
</g>
</g></g><g transform="translate(490,560) scale(0.35,0.35)"><g transform="" style="fill: rgb(101, 123, 131);">
<rect width="100" height="100"/>
</g></g><g transform="translate(525,560) scale(0.35,0.35)"><g transform="" style="fill: rgb(101, 123, 131);">
<g>
	<path d="M100,34.375c0-9.505-3.354-17.611-10.059-24.316S75.131,0,65.625,0H0v100h100V34.375z"/>
</g>
</g></g><g transform="translate(595,560) scale(0.35,0.35)"><g transform="" style="fill: rgb(101, 123, 131);">
<path d="M0.001,25.574C0.001,13.89,0-1,0-1s34.008,0,49.953,0.001c12.452-0.001,49.952,0,49.952,0v25.068
	c0,0,2.101,65.501-13.486,73.267C62.305,109.353,0.001,53.264,0.001,25.574z"/>
</g></g><g transform="translate(700,560) scale(0.35,0.35)"><g transform="" style="fill: rgb(101, 123, 131);">
<rect width="100" height="100"/>
</g></g><g transform="translate(735,560) scale(0.35,0.35)"><g transform="" style="fill: rgb(101, 123, 131);">
<rect width="100" height="100"/>
</g></g><g transform="translate(770,560) scale(0.35,0.35)"><g transform="" style="fill: rgb(101, 123, 131);">
<rect width="100" height="100"/>
</g></g><g transform="translate(875,560) scale(0.35,0.35)"><g transform="" style="fill: rgb(101, 123, 131);">
<rect width="100" height="100"/>
</g></g><g transform="translate(945,560) scale(0.35,0.35)"><g transform="" style="fill: rgb(101, 123, 131);">
<g>
	<path d="M100,0H0v65.625c0,9.506,3.353,17.611,10.059,24.316S24.87,100,34.375,100H100V0z"/>
</g>
</g></g><g transform="translate(980,560) scale(0.35,0.35)"><g transform="" style="fill: rgb(101, 123, 131);">
<g>
	<path d="M100,34.375c0-9.505-3.354-17.611-10.059-24.316S75.131,0,65.625,0H0v100h100V34.375z"/>
</g>
</g></g><g transform="translate(140,595) scale(0.35,0.35)"><g transform="" style="fill: rgb(101, 123, 131);">
<g>
	<path d="M100,0H0v65.625c0,9.506,3.353,17.611,10.059,24.316S24.87,100,34.375,100H100V0z"/>
</g>
</g></g><g transform="translate(175,595) scale(0.35,0.35)"><g transform="" style="fill: rgb(101, 123, 131);">
<g>
	<path d="M100,34.375c0-9.505-3.354-17.611-10.059-24.316S75.131,0,65.625,0H0v100h100V34.375z"/>
</g>
</g></g><g transform="translate(245,595) scale(0.35,0.35)"><g transform="" style="fill: rgb(101, 123, 131);">
<rect width="100" height="100"/>
</g></g><g transform="translate(315,595) scale(0.35,0.35)"><g transform="" style="fill: rgb(101, 123, 131);">
<g>
	<path d="M100,0H0v65.625c0,9.506,3.353,17.611,10.059,24.316S24.87,100,34.375,100H100V0z"/>
</g>
</g></g><g transform="translate(350,595) scale(0.35,0.35)"><g transform="" style="fill: rgb(101, 123, 131);">
<rect width="100" height="100"/>
</g></g><g transform="translate(420,595) scale(0.35,0.35)"><g transform="" style="fill: rgb(101, 123, 131);">
<path d="M0.001,25.574C0.001,13.89,0-1,0-1s34.008,0,49.953,0.001c12.452-0.001,49.952,0,49.952,0v25.068
	c0,0,2.101,65.501-13.486,73.267C62.305,109.353,0.001,53.264,0.001,25.574z"/>
</g></g><g transform="translate(490,595) scale(0.35,0.35)"><g transform="" style="fill: rgb(101, 123, 131);">
<g>
	<path d="M100,0H0v65.625c0,9.506,3.353,17.611,10.059,24.316S24.87,100,34.375,100H100V0z"/>
</g>
</g></g><g transform="translate(525,595) scale(0.35,0.35)"><g transform="" style="fill: rgb(101, 123, 131);">
<g>
	<path d="M100,0H0v100h65.625c9.506,0,17.611-3.354,24.316-10.059S100,75.131,100,65.625V0z"/>
</g>
</g></g><g transform="translate(700,595) scale(0.35,0.35)"><g transform="" style="fill: rgb(101, 123, 131);">
<rect width="100" height="100"/>
</g></g><g transform="translate(735,595) scale(0.35,0.35)"><g transform="" style="fill: rgb(101, 123, 131);">
<rect width="100" height="100"/>
</g></g><g transform="translate(770,595) scale(0.35,0.35)"><g transform="" style="fill: rgb(101, 123, 131);">
<rect width="100" height="100"/>
</g></g><g transform="translate(875,595) scale(0.35,0.35)"><g transform="" style="fill: rgb(101, 123, 131);">
<g>
	<path d="M100,0H0v65.625c0,9.506,3.353,17.611,10.059,24.316S24.87,100,34.375,100H100V0z"/>
</g>
</g></g><g transform="translate(910,595) scale(0.35,0.35)"><g transform="" style="fill: rgb(101, 123, 131);">
<path d="M26.574,99.999C14.89,99.999,0,100,0,100s0-34.008,0.001-49.953c-0.001-12.453,0-49.953,0-49.953h25.068
	c0,0,64.501-2.101,72.268,13.486C109.354,37.695,54.264,99.999,26.574,99.999z"/>
</g></g><g transform="translate(980,595) scale(0.35,0.35)"><g transform="" style="fill: rgb(101, 123, 131);">
<rect width="100" height="100"/>
</g></g><g transform="translate(0,630) scale(0.35,0.35)"><g transform="" style="fill: rgb(101, 123, 131);">
<g>
	<path d="M95.338,83.975C120.428,37.136,29.47-30.196,4.645,16.13C-20.399,62.878,70.625,130.076,95.338,83.975"/>
</g>
</g></g><g transform="translate(70,630) scale(0.35,0.35)"><g transform="" style="fill: rgb(101, 123, 131);">
<g>
	<path d="M95.338,83.975C120.428,37.136,29.47-30.196,4.645,16.13C-20.399,62.878,70.625,130.076,95.338,83.975"/>
</g>
</g></g><g transform="translate(175,630) scale(0.35,0.35)"><g transform="" style="fill: rgb(101, 123, 131);">
<g>
	<path d="M100,0H0v65.625c0,9.506,3.353,17.611,10.059,24.316S24.87,100,34.375,100H100V0z"/>
</g>
</g></g><g transform="translate(210,630) scale(0.35,0.35)"><g transform="" style="fill: rgb(101, 123, 131);">
<rect width="100" height="100"/>
</g></g><g transform="translate(245,630) scale(0.35,0.35)"><g transform="" style="fill: rgb(101, 123, 131);">
<rect width="100" height="100"/>
</g></g><g transform="translate(280,630) scale(0.35,0.35)"><g transform="" style="fill: rgb(101, 123, 131);">
<path d="M26.574,99.999C14.89,99.999,0,100,0,100s0-34.008,0.001-49.953c-0.001-12.453,0-49.953,0-49.953h25.068
	c0,0,64.501-2.101,72.268,13.486C109.354,37.695,54.264,99.999,26.574,99.999z"/>
</g></g><g transform="translate(350,630) scale(0.35,0.35)"><g transform="" style="fill: rgb(101, 123, 131);">
<path d="M0.001,25.574C0.001,13.89,0-1,0-1s34.008,0,49.953,0.001c12.452-0.001,49.952,0,49.952,0v25.068
	c0,0,2.101,65.501-13.486,73.267C62.305,109.353,0.001,53.264,0.001,25.574z"/>
</g></g><g transform="translate(455,630) scale(0.35,0.35)"><g transform="" style="fill: rgb(101, 123, 131);">
<g>
	<path d="M95.338,83.975C120.428,37.136,29.47-30.196,4.645,16.13C-20.399,62.878,70.625,130.076,95.338,83.975"/>
</g>
</g></g><g transform="translate(595,630) scale(0.35,0.35)"><g transform="" style="fill: rgb(101, 123, 131);">
<path d="M99.999,73.426C99.999,85.11,100,100,100,100s-34.008,0-49.953-0.001c-12.452,0.001-49.952,0-49.952,0V74.931
	c0,0-2.101-65.501,13.486-73.267C37.695-10.353,99.999,45.737,99.999,73.426z"/>
</g></g><g transform="translate(700,630) scale(0.35,0.35)"><g transform="" style="fill: rgb(101, 123, 131);">
<rect width="100" height="100"/>
</g></g><g transform="translate(770,630) scale(0.35,0.35)"><g transform="" style="fill: rgb(101, 123, 131);">
<g>
	<path d="M100,0H0v65.625c0,9.506,3.353,17.611,10.059,24.316S24.87,100,34.375,100H100V0z"/>
</g>
</g></g><g transform="translate(805,630) scale(0.35,0.35)"><g transform="" style="fill: rgb(101, 123, 131);">
<g>
	<path d="M100,34.375c0-9.505-3.354-17.611-10.059-24.316S75.131,0,65.625,0H0v100h100V34.375z"/>
</g>
</g></g><g transform="translate(945,630) scale(0.35,0.35)"><g transform="" style="fill: rgb(101, 123, 131);">
<g>
	<path d="M100,34.375V0H34.375C24.87,0,16.764,3.353,10.059,10.059S0,24.87,0,34.375V100h100V34.375z"/>
</g>
</g></g><g transform="translate(980,630) scale(0.35,0.35)"><g transform="" style="fill: rgb(101, 123, 131);">
<g>
	<path d="M100,0H0v100h65.625c9.506,0,17.611-3.354,24.316-10.059S100,75.131,100,65.625V0z"/>
</g>
</g></g><g transform="translate(35,665) scale(0.35,0.35)"><g transform="" style="fill: rgb(101, 123, 131);">
<g>
	<path d="M95.338,83.975C120.428,37.136,29.47-30.196,4.645,16.13C-20.399,62.878,70.625,130.076,95.338,83.975"/>
</g>
</g></g><g transform="translate(140,665) scale(0.35,0.35)"><g transform="" style="fill: rgb(101, 123, 131);">
<g>
	<path d="M95.338,83.975C120.428,37.136,29.47-30.196,4.645,16.13C-20.399,62.878,70.625,130.076,95.338,83.975"/>
</g>
</g></g><g transform="translate(245,665) scale(0.35,0.35)"><g transform="" style="fill: rgb(101, 123, 131);">
<rect width="100" height="100"/>
</g></g><g transform="translate(315,665) scale(0.35,0.35)"><g transform="" style="fill: rgb(101, 123, 131);">
<path d="M99.999,73.426C99.999,85.11,100,100,100,100s-34.008,0-49.953-0.001c-12.452,0.001-49.952,0-49.952,0V74.931
	c0,0-2.101-65.501,13.486-73.267C37.695-10.353,99.999,45.737,99.999,73.426z"/>
</g></g><g transform="translate(385,665) scale(0.35,0.35)"><g transform="" style="fill: rgb(101, 123, 131);">
<path d="M99.999,73.426C99.999,85.11,100,100,100,100s-34.008,0-49.953-0.001c-12.452,0.001-49.952,0-49.952,0V74.931
	c0,0-2.101-65.501,13.486-73.267C37.695-10.353,99.999,45.737,99.999,73.426z"/>
</g></g><g transform="translate(525,665) scale(0.35,0.35)"><g transform="" style="fill: rgb(101, 123, 131);">
<g>
	<path d="M95.338,83.975C120.428,37.136,29.47-30.196,4.645,16.13C-20.399,62.878,70.625,130.076,95.338,83.975"/>
</g>
</g></g><g transform="translate(595,665) scale(0.35,0.35)"><g transform="" style="fill: rgb(101, 123, 131);">
<rect width="100" height="100"/>
</g></g><g transform="translate(630,665) scale(0.35,0.35)"><g transform="" style="fill: rgb(101, 123, 131);">
<g>
	<path d="M100,34.375c0-9.505-3.354-17.611-10.059-24.316S75.131,0,65.625,0H0v100h100V34.375z"/>
</g>
</g></g><g transform="translate(700,665) scale(0.35,0.35)"><g transform="" style="fill: rgb(101, 123, 131);">
<rect width="100" height="100"/>
</g></g><g transform="translate(805,665) scale(0.35,0.35)"><g transform="" style="fill: rgb(101, 123, 131);">
<rect width="100" height="100"/>
</g></g><g transform="translate(875,665) scale(0.35,0.35)"><g transform="" style="fill: rgb(101, 123, 131);">
<g>
	<path d="M95.338,83.975C120.428,37.136,29.47-30.196,4.645,16.13C-20.399,62.878,70.625,130.076,95.338,83.975"/>
</g>
</g></g><g transform="translate(945,665) scale(0.35,0.35)"><g transform="" style="fill: rgb(101, 123, 131);">
<path d="M0.001,25.574C0.001,13.89,0-1,0-1s34.008,0,49.953,0.001c12.452-0.001,49.952,0,49.952,0v25.068
	c0,0,2.101,65.501-13.486,73.267C62.305,109.353,0.001,53.264,0.001,25.574z"/>
</g></g><g transform="translate(0,700) scale(0.35,0.35)"><g transform="" style="fill: rgb(101, 123, 131);">
<g>
	<path d="M95.338,83.975C120.428,37.136,29.47-30.196,4.645,16.13C-20.399,62.878,70.625,130.076,95.338,83.975"/>
</g>
</g></g><g transform="translate(70,700) scale(0.35,0.35)"><g transform="" style="fill: rgb(101, 123, 131);">
<path d="M73.425,0.001C85.11,0.001,100,0,100,0s0,34.008-0.001,49.953c0.001,12.452,0,49.952,0,49.952H74.931
	c0,0-65.501,2.1-73.268-13.486C-10.352,62.305,45.736,0.001,73.425,0.001z"/>
</g></g><g transform="translate(105,700) scale(0.35,0.35)"><g transform="" style="fill: rgb(101, 123, 131);">
<path d="M26.574,99.999C14.89,99.999,0,100,0,100s0-34.008,0.001-49.953c-0.001-12.453,0-49.953,0-49.953h25.068
	c0,0,64.501-2.101,72.268,13.486C109.354,37.695,54.264,99.999,26.574,99.999z"/>
</g></g><g transform="translate(210,700) scale(0.35,0.35)"><g transform="" style="fill: rgb(101, 123, 131);">
<path d="M73.425,0.001C85.11,0.001,100,0,100,0s0,34.008-0.001,49.953c0.001,12.452,0,49.952,0,49.952H74.931
	c0,0-65.501,2.1-73.268-13.486C-10.352,62.305,45.736,0.001,73.425,0.001z"/>
</g></g><g transform="translate(245,700) scale(0.35,0.35)"><g transform="" style="fill: rgb(101, 123, 131);">
<g>
	<path d="M100,0H0v100h65.625c9.506,0,17.611-3.354,24.316-10.059S100,75.131,100,65.625V0z"/>
</g>
</g></g><g transform="translate(315,700) scale(0.35,0.35)"><g transform="" style="fill: rgb(101, 123, 131);">
<path d="M0.001,25.574C0.001,13.89,0-1,0-1s34.008,0,49.953,0.001c12.452-0.001,49.952,0,49.952,0v25.068
	c0,0,2.101,65.501-13.486,73.267C62.305,109.353,0.001,53.264,0.001,25.574z"/>
</g></g><g transform="translate(385,700) scale(0.35,0.35)"><g transform="" style="fill: rgb(101, 123, 131);">
<g>
	<path d="M100,0H0v65.625c0,9.506,3.353,17.611,10.059,24.316S24.87,100,34.375,100H100V0z"/>
</g>
</g></g><g transform="translate(420,700) scale(0.35,0.35)"><g transform="" style="fill: rgb(101, 123, 131);">
<g>
	<path d="M100,34.375c0-9.505-3.354-17.611-10.059-24.316S75.131,0,65.625,0H0v100h100V34.375z"/>
</g>
</g></g><g transform="translate(560,700) scale(0.35,0.35)"><g transform="" style="fill: rgb(101, 123, 131);">
<g>
	<path d="M100,34.375V0H34.375C24.87,0,16.764,3.353,10.059,10.059S0,24.87,0,34.375V100h100V34.375z"/>
</g>
</g></g><g transform="translate(595,700) scale(0.35,0.35)"><g transform="" style="fill: rgb(101, 123, 131);">
<rect width="100" height="100"/>
</g></g><g transform="translate(630,700) scale(0.35,0.35)"><g transform="" style="fill: rgb(101, 123, 131);">
<rect width="100" height="100"/>
</g></g><g transform="translate(665,700) scale(0.35,0.35)"><g transform="" style="fill: rgb(101, 123, 131);">
<rect width="100" height="100"/>
</g></g><g transform="translate(700,700) scale(0.35,0.35)"><g transform="" style="fill: rgb(101, 123, 131);">
<rect width="100" height="100"/>
</g></g><g transform="translate(735,700) scale(0.35,0.35)"><g transform="" style="fill: rgb(101, 123, 131);">
<rect width="100" height="100"/>
</g></g><g transform="translate(770,700) scale(0.35,0.35)"><g transform="" style="fill: rgb(101, 123, 131);">
<rect width="100" height="100"/>
</g></g><g transform="translate(805,700) scale(0.35,0.35)"><g transform="" style="fill: rgb(101, 123, 131);">
<rect width="100" height="100"/>
</g></g><g transform="translate(840,700) scale(0.35,0.35)"><g transform="" style="fill: rgb(101, 123, 131);">
<g>
	<path d="M100,34.375c0-9.505-3.354-17.611-10.059-24.316S75.131,0,65.625,0H0v100h100V34.375z"/>
</g>
</g></g><g transform="translate(280,735) scale(0.35,0.35)"><g transform="" style="fill: rgb(101, 123, 131);">
<g>
	<path d="M95.338,83.975C120.428,37.136,29.47-30.196,4.645,16.13C-20.399,62.878,70.625,130.076,95.338,83.975"/>
</g>
</g></g><g transform="translate(350,735) scale(0.35,0.35)"><g transform="" style="fill: rgb(101, 123, 131);">
<path d="M99.999,73.426C99.999,85.11,100,100,100,100s-34.008,0-49.953-0.001c-12.452,0.001-49.952,0-49.952,0V74.931
	c0,0-2.101-65.501,13.486-73.267C37.695-10.353,99.999,45.737,99.999,73.426z"/>
</g></g><g transform="translate(420,735) scale(0.35,0.35)"><g transform="" style="fill: rgb(101, 123, 131);">
<g>
	<path d="M100,0H0v65.625c0,9.506,3.353,17.611,10.059,24.316S24.87,100,34.375,100H100V0z"/>
</g>
</g></g><g transform="translate(455,735) scale(0.35,0.35)"><g transform="" style="fill: rgb(101, 123, 131);">
<path d="M26.574,99.999C14.89,99.999,0,100,0,100s0-34.008,0.001-49.953c-0.001-12.453,0-49.953,0-49.953h25.068
	c0,0,64.501-2.101,72.268,13.486C109.354,37.695,54.264,99.999,26.574,99.999z"/>
</g></g><g transform="translate(525,735) scale(0.35,0.35)"><g transform="" style="fill: rgb(101, 123, 131);">
<g>
	<path d="M100,34.375V0H34.375C24.87,0,16.764,3.353,10.059,10.059S0,24.87,0,34.375V100h100V34.375z"/>
</g>
</g></g><g transform="translate(560,735) scale(0.35,0.35)"><g transform="" style="fill: rgb(101, 123, 131);">
<rect width="100" height="100"/>
</g></g><g transform="translate(665,735) scale(0.35,0.35)"><g transform="" style="fill: rgb(101, 123, 131);">
<rect width="100" height="100"/>
</g></g><g transform="translate(700,735) scale(0.35,0.35)"><g transform="" style="fill: rgb(101, 123, 131);">
<rect width="100" height="100"/>
</g></g><g transform="translate(840,735) scale(0.35,0.35)"><g transform="" style="fill: rgb(101, 123, 131);">
<rect width="100" height="100"/>
</g></g><g transform="translate(910,735) scale(0.35,0.35)"><g transform="" style="fill: rgb(101, 123, 131);">
<path d="M73.425,0.001C85.11,0.001,100,0,100,0s0,34.008-0.001,49.953c0.001,12.452,0,49.952,0,49.952H74.931
	c0,0-65.501,2.1-73.268-13.486C-10.352,62.305,45.736,0.001,73.425,0.001z"/>
</g></g><g transform="translate(945,735) scale(0.35,0.35)"><g transform="" style="fill: rgb(101, 123, 131);">
<rect width="100" height="100"/>
</g></g><g transform="translate(980,735) scale(0.35,0.35)"><g transform="" style="fill: rgb(101, 123, 131);">
<g>
	<path d="M100,34.375c0-9.505-3.354-17.611-10.059-24.316S75.131,0,65.625,0H0v100h100V34.375z"/>
</g>
</g></g><g transform="translate(315,770) scale(0.35,0.35)"><g transform="" style="fill: rgb(101, 123, 131);">
<g>
	<path d="M100,34.375V0H34.375C24.87,0,16.764,3.353,10.059,10.059S0,24.87,0,34.375V100h100V34.375z"/>
</g>
</g></g><g transform="translate(350,770) scale(0.35,0.35)"><g transform="" style="fill: rgb(101, 123, 131);">
<rect width="100" height="100"/>
</g></g><g transform="translate(385,770) scale(0.35,0.35)"><g transform="" style="fill: rgb(101, 123, 131);">
<g>
	<path d="M100,34.375c0-9.505-3.354-17.611-10.059-24.316S75.131,0,65.625,0H0v100h100V34.375z"/>
</g>
</g></g><g transform="translate(490,770) scale(0.35,0.35)"><g transform="" style="fill: rgb(101, 123, 131);">
<g>
	<path d="M100,34.375V0H34.375C24.87,0,16.764,3.353,10.059,10.059S0,24.87,0,34.375V100h100V34.375z"/>
</g>
</g></g><g transform="translate(525,770) scale(0.35,0.35)"><g transform="" style="fill: rgb(101, 123, 131);">
<rect width="100" height="100"/>
</g></g><g transform="translate(560,770) scale(0.35,0.35)"><g transform="" style="fill: rgb(101, 123, 131);">
<rect width="100" height="100"/>
</g></g><g transform="translate(595,770) scale(0.35,0.35)"><g transform="" style="fill: rgb(101, 123, 131);">
<g>
	<path d="M100,34.375c0-9.505-3.354-17.611-10.059-24.316S75.131,0,65.625,0H0v100h100V34.375z"/>
</g>
</g></g><g transform="translate(665,770) scale(0.35,0.35)"><g transform="" style="fill: rgb(101, 123, 131);">
<rect width="100" height="100"/>
</g></g><g transform="translate(700,770) scale(0.35,0.35)"><g transform="" style="fill: rgb(101, 123, 131);">
<rect width="100" height="100"/>
</g></g><g transform="translate(770,770) scale(0.35,0.35)"><g transform="" style="fill: rgb(101, 123, 131);">
<g>
	<path d="M95.338,83.975C120.428,37.136,29.47-30.196,4.645,16.13C-20.399,62.878,70.625,130.076,95.338,83.975"/>
</g>
</g></g><g transform="translate(840,770) scale(0.35,0.35)"><g transform="" style="fill: rgb(101, 123, 131);">
<rect width="100" height="100"/>
</g></g><g transform="translate(875,770) scale(0.35,0.35)"><g transform="" style="fill: rgb(101, 123, 131);">
<g>
	<path d="M100,34.375c0-9.505-3.354-17.611-10.059-24.316S75.131,0,65.625,0H0v100h100V34.375z"/>
</g>
</g></g><g transform="translate(945,770) scale(0.35,0.35)"><g transform="" style="fill: rgb(101, 123, 131);">
<rect width="100" height="100"/>
</g></g><g transform="translate(980,770) scale(0.35,0.35)"><g transform="" style="fill: rgb(101, 123, 131);">
<g>
	<path d="M100,0H0v100h65.625c9.506,0,17.611-3.354,24.316-10.059S100,75.131,100,65.625V0z"/>
</g>
</g></g><g transform="translate(315,805) scale(0.35,0.35)"><g transform="" style="fill: rgb(101, 123, 131);">
<path d="M0.001,25.574C0.001,13.89,0-1,0-1s34.008,0,49.953,0.001c12.452-0.001,49.952,0,49.952,0v25.068
	c0,0,2.101,65.501-13.486,73.267C62.305,109.353,0.001,53.264,0.001,25.574z"/>
</g></g><g transform="translate(385,805) scale(0.35,0.35)"><g transform="" style="fill: rgb(101, 123, 131);">
<path d="M0.001,25.574C0.001,13.89,0-1,0-1s34.008,0,49.953,0.001c12.452-0.001,49.952,0,49.952,0v25.068
	c0,0,2.101,65.501-13.486,73.267C62.305,109.353,0.001,53.264,0.001,25.574z"/>
</g></g><g transform="translate(455,805) scale(0.35,0.35)"><g transform="" style="fill: rgb(101, 123, 131);">
<path d="M73.425,0.001C85.11,0.001,100,0,100,0s0,34.008-0.001,49.953c0.001,12.452,0,49.952,0,49.952H74.931
	c0,0-65.501,2.1-73.268-13.486C-10.352,62.305,45.736,0.001,73.425,0.001z"/>
</g></g><g transform="translate(490,805) scale(0.35,0.35)"><g transform="" style="fill: rgb(101, 123, 131);">
<rect width="100" height="100"/>
</g></g><g transform="translate(560,805) scale(0.35,0.35)"><g transform="" style="fill: rgb(101, 123, 131);">
<g>
	<path d="M100,0H0v65.625c0,9.506,3.353,17.611,10.059,24.316S24.87,100,34.375,100H100V0z"/>
</g>
</g></g><g transform="translate(595,805) scale(0.35,0.35)"><g transform="" style="fill: rgb(101, 123, 131);">
<rect width="100" height="100"/>
</g></g><g transform="translate(630,805) scale(0.35,0.35)"><g transform="" style="fill: rgb(101, 123, 131);">
<rect width="100" height="100"/>
</g></g><g transform="translate(665,805) scale(0.35,0.35)"><g transform="" style="fill: rgb(101, 123, 131);">
<rect width="100" height="100"/>
</g></g><g transform="translate(700,805) scale(0.35,0.35)"><g transform="" style="fill: rgb(101, 123, 131);">
<rect width="100" height="100"/>
</g></g><g transform="translate(840,805) scale(0.35,0.35)"><g transform="" style="fill: rgb(101, 123, 131);">
<rect width="100" height="100"/>
</g></g><g transform="translate(875,805) scale(0.35,0.35)"><g transform="" style="fill: rgb(101, 123, 131);">
<g>
	<path d="M100,0H0v100h65.625c9.506,0,17.611-3.354,24.316-10.059S100,75.131,100,65.625V0z"/>
</g>
</g></g><g transform="translate(945,805) scale(0.35,0.35)"><g transform="" style="fill: rgb(101, 123, 131);">
<rect width="100" height="100"/>
</g></g><g transform="translate(280,840) scale(0.35,0.35)"><g transform="" style="fill: rgb(101, 123, 131);">
<g>
	<path d="M95.338,83.975C120.428,37.136,29.47-30.196,4.645,16.13C-20.399,62.878,70.625,130.076,95.338,83.975"/>
</g>
</g></g><g transform="translate(490,840) scale(0.35,0.35)"><g transform="" style="fill: rgb(101, 123, 131);">
<rect width="100" height="100"/>
</g></g><g transform="translate(525,840) scale(0.35,0.35)"><g transform="" style="fill: rgb(101, 123, 131);">
<g>
	<path d="M100,34.375c0-9.505-3.354-17.611-10.059-24.316S75.131,0,65.625,0H0v100h100V34.375z"/>
</g>
</g></g><g transform="translate(630,840) scale(0.35,0.35)"><g transform="" style="fill: rgb(101, 123, 131);">
<path d="M0.001,25.574C0.001,13.89,0-1,0-1s34.008,0,49.953,0.001c12.452-0.001,49.952,0,49.952,0v25.068
	c0,0,2.101,65.501-13.486,73.267C62.305,109.353,0.001,53.264,0.001,25.574z"/>
</g></g><g transform="translate(700,840) scale(0.35,0.35)"><g transform="" style="fill: rgb(101, 123, 131);">
<rect width="100" height="100"/>
</g></g><g transform="translate(735,840) scale(0.35,0.35)"><g transform="" style="fill: rgb(101, 123, 131);">
<rect width="100" height="100"/>
</g></g><g transform="translate(770,840) scale(0.35,0.35)"><g transform="" style="fill: rgb(101, 123, 131);">
<rect width="100" height="100"/>
</g></g><g transform="translate(805,840) scale(0.35,0.35)"><g transform="" style="fill: rgb(101, 123, 131);">
<rect width="100" height="100"/>
</g></g><g transform="translate(840,840) scale(0.35,0.35)"><g transform="" style="fill: rgb(101, 123, 131);">
<rect width="100" height="100"/>
</g></g><g transform="translate(945,840) scale(0.35,0.35)"><g transform="" style="fill: rgb(101, 123, 131);">
<path d="M0.001,25.574C0.001,13.89,0-1,0-1s34.008,0,49.953,0.001c12.452-0.001,49.952,0,49.952,0v25.068
	c0,0,2.101,65.501-13.486,73.267C62.305,109.353,0.001,53.264,0.001,25.574z"/>
</g></g><g transform="translate(385,875) scale(0.35,0.35)"><g transform="" style="fill: rgb(101, 123, 131);">
<g>
	<path d="M100,34.375V0H34.375C24.87,0,16.764,3.353,10.059,10.059S0,24.87,0,34.375V100h100V34.375z"/>
</g>
</g></g><g transform="translate(420,875) scale(0.35,0.35)"><g transform="" style="fill: rgb(101, 123, 131);">
<rect width="100" height="100"/>
</g></g><g transform="translate(455,875) scale(0.35,0.35)"><g transform="" style="fill: rgb(101, 123, 131);">
<rect width="100" height="100"/>
</g></g><g transform="translate(490,875) scale(0.35,0.35)"><g transform="" style="fill: rgb(101, 123, 131);">
<rect width="100" height="100"/>
</g></g><g transform="translate(525,875) scale(0.35,0.35)"><g transform="" style="fill: rgb(101, 123, 131);">
<g>
	<path d="M100,0H0v100h65.625c9.506,0,17.611-3.354,24.316-10.059S100,75.131,100,65.625V0z"/>
</g>
</g></g><g transform="translate(700,875) scale(0.35,0.35)"><g transform="" style="fill: rgb(101, 123, 131);">
<rect width="100" height="100"/>
</g></g><g transform="translate(840,875) scale(0.35,0.35)"><g transform="" style="fill: rgb(101, 123, 131);">
<rect width="100" height="100"/>
</g></g><g transform="translate(910,875) scale(0.35,0.35)"><g transform="" style="fill: rgb(101, 123, 131);">
<g>
	<path d="M95.338,83.975C120.428,37.136,29.47-30.196,4.645,16.13C-20.399,62.878,70.625,130.076,95.338,83.975"/>
</g>
</g></g><g transform="translate(280,910) scale(0.35,0.35)"><g transform="" style="fill: rgb(101, 123, 131);">
<g>
	<path d="M95.338,83.975C120.428,37.136,29.47-30.196,4.645,16.13C-20.399,62.878,70.625,130.076,95.338,83.975"/>
</g>
</g></g><g transform="translate(350,910) scale(0.35,0.35)"><g transform="" style="fill: rgb(101, 123, 131);">
<g>
	<path d="M100,34.375V0H34.375C24.87,0,16.764,3.353,10.059,10.059S0,24.87,0,34.375V100h100V34.375z"/>
</g>
</g></g><g transform="translate(385,910) scale(0.35,0.35)"><g transform="" style="fill: rgb(101, 123, 131);">
<g>
	<path d="M100,0H0v100h65.625c9.506,0,17.611-3.354,24.316-10.059S100,75.131,100,65.625V0z"/>
</g>
</g></g><g transform="translate(595,910) scale(0.35,0.35)"><g transform="" style="fill: rgb(101, 123, 131);">
<g>
	<path d="M95.338,83.975C120.428,37.136,29.47-30.196,4.645,16.13C-20.399,62.878,70.625,130.076,95.338,83.975"/>
</g>
</g></g><g transform="translate(700,910) scale(0.35,0.35)"><g transform="" style="fill: rgb(101, 123, 131);">
<rect width="100" height="100"/>
</g></g><g transform="translate(805,910) scale(0.35,0.35)"><g transform="" style="fill: rgb(101, 123, 131);">
<g>
	<path d="M100,34.375V0H34.375C24.87,0,16.764,3.353,10.059,10.059S0,24.87,0,34.375V100h100V34.375z"/>
</g>
</g></g><g transform="translate(840,910) scale(0.35,0.35)"><g transform="" style="fill: rgb(101, 123, 131);">
<rect width="100" height="100"/>
</g></g><g transform="translate(875,910) scale(0.35,0.35)"><g transform="" style="fill: rgb(101, 123, 131);">
<path d="M26.574,99.999C14.89,99.999,0,100,0,100s0-34.008,0.001-49.953c-0.001-12.453,0-49.953,0-49.953h25.068
	c0,0,64.501-2.101,72.268,13.486C109.354,37.695,54.264,99.999,26.574,99.999z"/>
</g></g><g transform="translate(980,910) scale(0.35,0.35)"><g transform="" style="fill: rgb(101, 123, 131);">
<g>
	<path d="M95.338,83.975C120.428,37.136,29.47-30.196,4.645,16.13C-20.399,62.878,70.625,130.076,95.338,83.975"/>
</g>
</g></g><g transform="translate(350,945) scale(0.35,0.35)"><g transform="" style="fill: rgb(101, 123, 131);">
<path d="M0.001,25.574C0.001,13.89,0-1,0-1s34.008,0,49.953,0.001c12.452-0.001,49.952,0,49.952,0v25.068
	c0,0,2.101,65.501-13.486,73.267C62.305,109.353,0.001,53.264,0.001,25.574z"/>
</g></g><g transform="translate(455,945) scale(0.35,0.35)"><g transform="" style="fill: rgb(101, 123, 131);">
<path d="M73.425,0.001C85.11,0.001,100,0,100,0s0,34.008-0.001,49.953c0.001,12.452,0,49.952,0,49.952H74.931
	c0,0-65.501,2.1-73.268-13.486C-10.352,62.305,45.736,0.001,73.425,0.001z"/>
</g></g><g transform="translate(490,945) scale(0.35,0.35)"><g transform="" style="fill: rgb(101, 123, 131);">
<rect width="100" height="100"/>
</g></g><g transform="translate(525,945) scale(0.35,0.35)"><g transform="" style="fill: rgb(101, 123, 131);">
<path d="M26.574,99.999C14.89,99.999,0,100,0,100s0-34.008,0.001-49.953c-0.001-12.453,0-49.953,0-49.953h25.068
	c0,0,64.501-2.101,72.268,13.486C109.354,37.695,54.264,99.999,26.574,99.999z"/>
</g></g><g transform="translate(665,945) scale(0.35,0.35)"><g transform="" style="fill: rgb(101, 123, 131);">
<g>
	<path d="M100,34.375V0H34.375C24.87,0,16.764,3.353,10.059,10.059S0,24.87,0,34.375V100h100V34.375z"/>
</g>
</g></g><g transform="translate(700,945) scale(0.35,0.35)"><g transform="" style="fill: rgb(101, 123, 131);">
<rect width="100" height="100"/>
</g></g><g transform="translate(770,945) scale(0.35,0.35)"><g transform="" style="fill: rgb(101, 123, 131);">
<path d="M73.425,0.001C85.11,0.001,100,0,100,0s0,34.008-0.001,49.953c0.001,12.452,0,49.952,0,49.952H74.931
	c0,0-65.501,2.1-73.268-13.486C-10.352,62.305,45.736,0.001,73.425,0.001z"/>
</g></g><g transform="translate(805,945) scale(0.35,0.35)"><g transform="" style="fill: rgb(101, 123, 131);">
<rect width="100" height="100"/>
</g></g><g transform="translate(840,945) scale(0.35,0.35)"><g transform="" style="fill: rgb(101, 123, 131);">
<rect width="100" height="100"/>
</g></g><g transform="translate(945,945) scale(0.35,0.35)"><g transform="" style="fill: rgb(101, 123, 131);">
<path d="M99.999,73.426C99.999,85.11,100,100,100,100s-34.008,0-49.953-0.001c-12.452,0.001-49.952,0-49.952,0V74.931
	c0,0-2.101-65.501,13.486-73.267C37.695-10.353,99.999,45.737,99.999,73.426z"/>
</g></g><g transform="translate(280,980) scale(0.35,0.35)"><g transform="" style="fill: rgb(101, 123, 131);">
<path d="M73.425,0.001C85.11,0.001,100,0,100,0s0,34.008-0.001,49.953c0.001,12.452,0,49.952,0,49.952H74.931
	c0,0-65.501,2.1-73.268-13.486C-10.352,62.305,45.736,0.001,73.425,0.001z"/>
</g></g><g transform="translate(315,980) scale(0.35,0.35)"><g transform="" style="fill: rgb(101, 123, 131);">
<path d="M26.574,99.999C14.89,99.999,0,100,0,100s0-34.008,0.001-49.953c-0.001-12.453,0-49.953,0-49.953h25.068
	c0,0,64.501-2.101,72.268,13.486C109.354,37.695,54.264,99.999,26.574,99.999z"/>
</g></g><g transform="translate(385,980) scale(0.35,0.35)"><g transform="" style="fill: rgb(101, 123, 131);">
<g>
	<path d="M95.338,83.975C120.428,37.136,29.47-30.196,4.645,16.13C-20.399,62.878,70.625,130.076,95.338,83.975"/>
</g>
</g></g><g transform="translate(560,980) scale(0.35,0.35)"><g transform="" style="fill: rgb(101, 123, 131);">
<g>
	<path d="M95.338,83.975C120.428,37.136,29.47-30.196,4.645,16.13C-20.399,62.878,70.625,130.076,95.338,83.975"/>
</g>
</g></g><g transform="translate(665,980) scale(0.35,0.35)"><g transform="" style="fill: rgb(101, 123, 131);">
<g>
	<path d="M100,0H0v65.625c0,9.506,3.353,17.611,10.059,24.316S24.87,100,34.375,100H100V0z"/>
</g>
</g></g><g transform="translate(700,980) scale(0.35,0.35)"><g transform="" style="fill: rgb(101, 123, 131);">
<g>
	<path d="M100,0H0v100h65.625c9.506,0,17.611-3.354,24.316-10.059S100,75.131,100,65.625V0z"/>
</g>
</g></g><g transform="translate(805,980) scale(0.35,0.35)"><g transform="" style="fill: rgb(101, 123, 131);">
<g>
	<path d="M100,0H0v65.625c0,9.506,3.353,17.611,10.059,24.316S24.87,100,34.375,100H100V0z"/>
</g>
</g></g><g transform="translate(840,980) scale(0.35,0.35)"><g transform="" style="fill: rgb(101, 123, 131);">
<rect width="100" height="100"/>
</g></g><g transform="translate(875,980) scale(0.35,0.35)"><g transform="" style="fill: rgb(101, 123, 131);">
<path d="M26.574,99.999C14.89,99.999,0,100,0,100s0-34.008,0.001-49.953c-0.001-12.453,0-49.953,0-49.953h25.068
	c0,0,64.501-2.101,72.268,13.486C109.354,37.695,54.264,99.999,26.574,99.999z"/>
</g></g><g transform="translate(945,980) scale(0.35,0.35)"><g transform="" style="fill: rgb(101, 123, 131);">
<g>
	<path d="M100,0H0v65.625c0,9.506,3.353,17.611,10.059,24.316S24.87,100,34.375,100H100V0z"/>
</g>
</g></g><g transform="translate(980,980) scale(0.35,0.35)"><g transform="" style="fill: rgb(101, 123, 131);">
<path d="M26.574,99.999C14.89,99.999,0,100,0,100s0-34.008,0.001-49.953c-0.001-12.453,0-49.953,0-49.953h25.068
	c0,0,64.501-2.101,72.268,13.486C109.354,37.695,54.264,99.999,26.574,99.999z"/>
</g></g><g transform="translate(0,0) scale(2.45, 2.45)"><g transform=" translate(100, 0) scale(-1,1) " style="fill: rgb(101, 123, 131);">
<g>
	<path style="fill:none;" d="M85,66.221V33.75C85,23.411,76.414,15,65.859,15H34.14C23.586,15,15,23.411,15,33.75v51.246
		l50.855-0.016C76.414,84.98,85,76.564,85,66.221z"/>
	<path d="M100,66.221V33.75C100,15.141,84.68,0,65.859,0H34.14C15.32,0,0,15.141,0,33.75V100l65.859-0.02
		C84.68,99.98,100,84.84,100,66.221z M85,66.221c0,10.344-8.586,18.76-19.145,18.76L15,84.996V33.75C15,23.411,23.586,15,34.14,15
		h31.719C76.414,15,85,23.411,85,33.75V66.221z"/>
</g>
</g></g><g transform="translate(770,0) scale(2.45, 2.45)"><g transform="" style="fill: rgb(101, 123, 131);">
<g>
	<path style="fill:none;" d="M85,66.221V33.75C85,23.411,76.414,15,65.859,15H34.14C23.586,15,15,23.411,15,33.75v51.246
		l50.855-0.016C76.414,84.98,85,76.564,85,66.221z"/>
	<path d="M100,66.221V33.75C100,15.141,84.68,0,65.859,0H34.14C15.32,0,0,15.141,0,33.75V100l65.859-0.02
		C84.68,99.98,100,84.84,100,66.221z M85,66.221c0,10.344-8.586,18.76-19.145,18.76L15,84.996V33.75C15,23.411,23.586,15,34.14,15
		h31.719C76.414,15,85,23.411,85,33.75V66.221z"/>
</g>
</g></g><g transform="translate(0,770) scale(2.45, 2.45)"><g transform=" translate(100, 0) scale(-1,1)  translate(0,100) scale(1,-1) " style="fill: rgb(101, 123, 131);">
<g>
	<path style="fill:none;" d="M85,66.221V33.75C85,23.411,76.414,15,65.859,15H34.14C23.586,15,15,23.411,15,33.75v51.246
		l50.855-0.016C76.414,84.98,85,76.564,85,66.221z"/>
	<path d="M100,66.221V33.75C100,15.141,84.68,0,65.859,0H34.14C15.32,0,0,15.141,0,33.75V100l65.859-0.02
		C84.68,99.98,100,84.84,100,66.221z M85,66.221c0,10.344-8.586,18.76-19.145,18.76L15,84.996V33.75C15,23.411,23.586,15,34.14,15
		h31.719C76.414,15,85,23.411,85,33.75V66.221z"/>
</g>
</g></g><g transform="translate(70,70) scale(1.05, 1.05)"><g transform=" translate(100, 0) scale(-1,1) " style="fill: rgb(101, 123, 131);">
<path d="M100,72.779V27.195C100,12.203,87.604,0,72.37,0H27.63C12.397,0,0,12.203,0,27.195V100l72.37-0.042
	C87.604,99.958,100,87.771,100,72.779z"/>
</g></g><g transform="translate(840,70) scale(1.05, 1.05)"><g transform="" style="fill: rgb(101, 123, 131);">
<path d="M100,72.779V27.195C100,12.203,87.604,0,72.37,0H27.63C12.397,0,0,12.203,0,27.195V100l72.37-0.042
	C87.604,99.958,100,87.771,100,72.779z"/>
</g></g><g transform="translate(70,840) scale(1.05, 1.05)"><g transform=" translate(100, 0) scale(-1,1)  translate(0,100) scale(1,-1) " style="fill: rgb(101, 123, 131);">
<path d="M100,72.779V27.195C100,12.203,87.604,0,72.37,0H27.63C12.397,0,0,12.203,0,27.195V100l72.37-0.042
	C87.604,99.958,100,87.771,100,72.779z"/>
</g></g></g></svg>